<?xml version="1.0" encoding="UTF-8"?><svg xmlns="http://www.w3.org/2000/svg" xmlns:xlink="http://www.w3.org/1999/xlink" height="623.7" preserveAspectRatio="xMidYMid meet" version="1.0" viewBox="0.0 -0.7 614.0 623.7" width="614.0" zoomAndPan="magnify"><g fill-rule="evenodd"><g id="change1_1"><path d="m187,28.072c-.354-6.354.999-11.001 2-16 9.35-4.493 22.136-.085 34-1 1.755,1.902-5.2.858-6,1-11.42,2.028-21.51,10.015-30,16z" fill="#fff"/></g><g id="change1_2"><path d="m228,12.072c5.253-1.565 14.975,1.009 23,0 .168,3.182 2.344,7.362 0,10-8.64-2.356-13.2-8.802-23-10z" fill="#fff"/></g><g id="change1_3"><path d="m253 12.072c4.918 1.191 5.521 12.944 0 14-1.32-3.726 2.42-8.258 0-14z" fill="#fff"/></g><g id="change1_4"><path d="m263,23.072h4c3.08,5.586 7.101,10.232 7,19-4.488-.155-4.173,4.494-4,9h-6c-.798-1.869-1.671-3.663-2-6 4.216,2.544 5.058-1.575 8-3-.706-3.294-1.607-6.393-2-10-.914-2.719-1.859,2.664-5,1-2.59-3.855-.62-4.869 0-10z" fill="#fff"/></g><g id="change1_5"><path d="m248,25.072c4.757-2.229 7.538,9.74 13,7 .08,4.587 2.89,6.443 2,12-5.82-5.515-7.58-15.086-15-19z" fill="#fff"/></g><g id="change1_6"><path d="m238,32.072c1.479.521 2.521,1.479 4,2-.63,2.432-5.05.529-4-2z" fill="#fff"/></g><g id="change1_7"><path d="m250,36.072c3.732-.454 7.554,10.588 8,17-4.18-4.157-3.51-13.155-8-17z" fill="#fff"/></g><g id="change1_8"><path d="m266,35.072c1.677,1.447 2.93,5.952 1,8-3.93.304-3.91-7.248-1-8z" fill="#fff"/></g><g id="change1_9"><path d="m181,38.072c-.247,1.086-1.988.678-2,2-.973-.027-.776-1.224-1-2 1.31-1.2 1.57-.39 3,0z" fill="#fff"/></g><g id="change1_10"><path d="m242,38.072c2.182-.182 3.182.818 3,3-.93-1.068-3.69-.311-3-3z" fill="#fff"/></g><g id="change1_11"><path d="m128,42.072c.759-1.653 8.241-1.653 9,0 .23,3.859-8.92,2.24-9,0z" fill="#fff"/></g><g id="change1_12"><path d="m146,82.072c-2.881-.119-6.546.546-8-1 .814-4.52 3.404-7.263 6-10-.346-16.68 4.474-28.192 21-28-13.58,5.491-19.89,22.211-19,39z" fill="#fff"/></g><g id="change1_13"><path d="m182 43.072c-2.2 3.054-6.4-1.155 0 0z" fill="#fff"/></g><g id="change1_14"><path d="m244,44.072c3.008-1.008 1.772,2.228 2,4-1.34-.658-1.86-2.138-2-4z" fill="#fff"/></g><g id="change1_15"><path d="m169,47.072c1.387-2.28 6.96-.373 10-1-.895,1.772-4.059,1.274-3,5-3.28-.384-4.41-2.925-7-4z" fill="#fff"/></g><g id="change1_16"><path d="m130,47.072c3.175-.192-.638,7.359 3,9-1.987-1.666-1.271.09-4,0-.54-3.868 1.78-4.882 1-9z" fill="#fff"/></g><g id="change1_17"><path d="m179,131.07c-3.047-5.257 1.685-10.902 2-17 .429-8.302-6.344-13.574-7-23 3.235-2.432 12.869,1.535 12-5 3.228-.895 1.405,3.262 3,4 3.654.679 7.271,1.395 12,1-1.859-4.808-7.418-5.915-10-10-2.055,1.478 3.399,3.867 3,7-3.733.066-4.86-2.474-7-4-3.407-.74-1.648,3.685-4,4-3.558.225-5.992-.674-7-3-.617-5.95 6.3-4.366 5-11-3.415,1.252-2.931,6.402-8,6 .22,3.22-1.769,4.231-1,8-8.852,1.464-23.041,3.491-33,8-2.69-2.434-.041-7.984 0-11 2.969-1.031 7.246-.754 9-3-6.216-16.598 10.922-16.566 10-31 2.198-1.136 3.322-3.344 6-4 4.857.809 6.794,4.54 11,6-1.888,4.016-5.564.297-9,2-.481,4.848 3.913,5.416 7,4 1.365,5.453 3.113,6.031 6,11 1.454-1.546 5.119-.881 8-1 2.917,5.648 8.676,5.796 9,12 2.356.022 2.944-1.723 6-1-1.189,4.424 3.094,6.066 6,9-1.576,5.424-3.242,10.758-12,9-4.62,12.05-11.92,21.41-17,33z" fill="#fff"/></g><g id="change1_18"><path d="m178,48.072c4.122,2.165.73,13.122-1,16-1.92-3.622.51-11.463 1-16z" fill="#fff"/></g><g id="change1_19"><path d="m185,49.072c2.664,4.003 1.684,11.649 4,16-3.059-.726-2.941,1.726-6,1 2.452-2.229 5.963-12.188-2-11 1.67-1.662 4.05-2.618 4-6z" fill="#fff"/></g><g id="change1_20"><path d="m133 50.072h4c1.17 3.471-5.59 4.649-4 0z" fill="#fff"/></g><g id="change1_21"><path d="m100,51.072c3.862.138 4.096,3.904 4,8-2.43-1.57-3.75-4.255-4-8z" fill="#fff"/></g><g id="change1_22"><path d="m298,72.072c-.331-7.553 6.383-12.741 0-18-16.928-1.078-30.194.812-49,4 13.104-5.986 35.581-7.63 53-6 .86.807.594,2.739 2,3 .31,7.98-.12,15.21-6,17z" fill="#fff"/></g><g id="change1_23"><path d="m134 56.072c3.03-3.697 3.37 3.037 0 0z" fill="#fff"/></g><g id="change1_24"><path d="m271,57.072c.772,4.772-1.564,6.436-1,11-4.365-.698-4.446,2.887-8,3 .844-4.156 2.578-7.422 2-13 1.29-1.378 4.34-.99 7-1z" fill="#fff"/></g><g id="change1_25"><path d="m298,58.072c-6.356,15.528-2.354,21.248-4,40-8.964-1.34-4.391-14.296-7-23-2.555-8.524-8.056-11.144-12-17 9.35.171 13.45-2.114 23,0z" fill="#fff"/></g><g id="change1_26"><path d="m181 59.072c1.151-3.235 1.132 2.686 1 4-1.15 3.235-1.13-2.686-1-4z" fill="#fff"/></g><g id="change2_1"><path d="m134,62.072c-.132,3.201-2.267,4.399-6,4-3.19-4.67 3.3-8.017 6-4zm-5,2c1.571-.095 3.467.134 3-2h-2c0,1.003-.81,1.19-1,2z" fill="inherit"/></g><g id="change1_27"><path d="m130,62.072h2c.467,2.134-1.429,1.905-3,2 .19-.81 1-.997 1-2z" fill="#fff"/></g><g id="change1_28"><path d="m274,64.072c8.84,4.16 10.444,15.556 10,29-7.979-.621-12.139,2.736-20,0 1.704-1.63 5.017-1.65 6-4-.86-7.794 1.42-17.697 4-25z" fill="#fff"/></g><g id="change2_2"><path d="m311,70.072c.441,4.441-2.557,5.443-7,5-1.06-6.801 3.11-7.833 7-5zm-5,3c1.721.054 2.563-.77 3-2-1.57.095-3.47-.134-3,2z" fill="inherit"/></g><g id="change2_3"><path d="m313,69.072c4.262.405 10.302-.968 13,1-.876,3.541-.124,2.459-1,6h-11c-1.38-1.289-.99-4.344-1-7zm2,4c.488,1.382 9.015,2.427 8-1-.49-1.382-9.02-2.427-8,1z" fill="inherit"/></g><g id="change1_29"><path d="m265,71.072c5.078,2.824-.926,10.773 1,17h-14c4.86-5.145 7.01-12.99 13-17z" fill="#fff"/></g><g id="change1_30"><path d="m309,71.072c-.437,1.23-1.279,2.054-3,2-.47-2.134 1.43-1.905 3-2z" fill="#fff"/></g><g id="change1_31"><path d="m323 72.072c1.015 3.427-7.512 2.382-8 1-1.02-3.427 7.51-2.382 8-1z" fill="#fff"/></g><g id="change1_32"><path d="m299,85.072c10.928.75 20.16,1.396 29,2-1.178,5.822-2.574,11.426-5,16-9.521,1.145-14.003-1.26-24-1-1.58-5.82-.39-10.57 0-16.998z" fill="#fff"/></g><g id="change1_33"><path d="m254,92.072c-2.201,4.533-9.027,3.38-13,4-10.877,1.697-25.713,3.756-34,2 1.079-8.003 23.197-2.902 27-3 7.2-.185 13.3-3.084 20-3z" fill="#fff"/></g><g id="change1_34"><path d="m292,123.07c4.033-6.245 17.155-16.818 22-5-7.59,3.744-12.423,10.244-17,17-9.524-6.143-19.354-11.979-27-20-6.634.646-5.05.256-11,1-3.328,1.002.268,4.036-3,6-2.44-3.485-.175-10.808 1-14-2.667-4.907-11.47-2.102-17-3-1.049-1.951-2.006-3.994-3-6 8.396-.604 19.666,1.666 20-7 3.101,1.566 3.815,5.518 7,7 12.303.305 15.61-.299 24,2-1.771,5.562-8.59,6.077-10,12 5.318-5.651 17.348-17.142 25-3-2.14,5.87-10.43,5.57-11,13z" fill="#fff"/></g><g id="change1_35"><path d="m176,100.07c-2.295,1.903-4.653-4.637-6-7 4.16.176 3.72,4.952 6,7z" fill="#fff"/></g><g id="change1_36"><path d="m174,118.07c4.091-2.192 1.452-12.006 1-16 5.251,4.505 5.831,13.813 2,20-1.172-.162-.843-1.823-1-3-.685,4.622-5.373,4.338-10,7-5.644-8.831-4.302-18.85-7-31 12.89-5.247 18.35,9.77 15,23z" fill="#fff"/></g><g id="change1_37"><path d="m152 96.072h5c1.116 4.55 2.348 8.985 3 14-2.43-4.9-8.08-6.59-8-13.998z" fill="#fff"/></g><g id="change1_38"><path d="m164 126.07c-2.854 1.479-6.619 2.047-9 4-5.321-9.679-9.729-20.271-15-30 2.711-1.289 5.553-2.447 10-2 5.84 8.16 10.89 17.11 14 28z" fill="#fff"/></g><g id="change1_39"><path d="m200,103.07c-6.244,8.879-1.317,19.287-6,29 7.379-5.287.798-24.536 9-29-.15-1.85-3.386-.614-4-2 8.599,1.043 25.745.042 35-1-2.07,3.93-7.843,4.157-6,12-8.258,2.931-11.416,5.416-23,4-6.206,4.729 1.656,11.075 0,16-3.457,1.677-6.232.331-12,1-1.895,2.873-1.104,9.973 0,13 12.389,1.611 29.481-1.481 32,10-10.023-1.977-19.932-4.068-28-8-2.86.14-1.829,4.171-2,7-3.332.335-4.436,2.897-9,2 .722-7.944-1.806-19.139 2-24-5.317-.317-3.822,6.178-11,4 3.148-6.147 6.528-12.765 10-19 3.15-5.65 5.8-13.56 13-15z" fill="#fff"/></g><g id="change1_40"><path d="m153,130.07c-11.409,2.038-9.597,13.758-10,25-3.32,1.225-3.132-.061-8,1 .487-15.265-7.891-34.213-24-39 6.741-11.465 24.281.768 27,9 1.564-9.24-13.014-10.979-18-17 3.856-3.708 10.75-8.506 15-8 10.6,1.26 12.54,21.25 18,29z" fill="#fff"/></g><g id="change1_41"><path d="m234,103.07c3.943-1.276 2.597,2.737 4,4 5.779-.445 10.247.42 15,1 1.645,4.618-.207,11.769-1,17-5.504.735-13.541,1.237-23-2-1.71-6.61.83-16.09 5-20z" fill="#fff"/></g><g id="change1_42"><path d="m302,105.07c5.215-1.858 14.277,1.038 21,1-.512,5.845 2.354,8.312 3,13-10.12-2.55-14.63-10.7-24-14z" fill="#fff"/></g><g id="change1_43"><path d="m227,115.07c.364,3.364-4.333,1.667-6,3-.03-3.03 3.51-2.49 6-3z" fill="#fff"/></g><g id="change1_44"><path d="m266,117.07c5.213-1.213 3.879,4.121 4,8-3.87.02-5.73-5.54-4-8z" fill="#fff"/></g><g id="change1_45"><path d="m133,145.07c.178,4.377-3.378-.937-4-2-9.974-5.693-12.374-18.959-26-21 13.57-12.19 26.82,11.67 30,23z" fill="#fff"/></g><g id="change1_46"><path d="m269,127.07c1.759-.241 2.279-1.721 2-4 6.474,2.668-.362,7.708-2,11-3.833-3.5-9.209-5.457-14-8 2.805-1.195 4.39-3.61 4-8 7.58-1.24 4.94,7.73 10,9z" fill="#fff"/></g><g id="change1_47"><path d="m315,121.07c-7.443,8.89-17.164,15.503-17,32-5.23-1.178-1.153-6.641 0-10 .503-1.465-.596-3.576 0-5 2.96-7.08 10.95-15.18 17-17z" fill="#fff"/></g><g id="change1_48"><path d="m317,121.07c8.151.849 14.519,3.481 22,5-.291,8.233.438,13.914 1,19-6.953-1.073-12.69,1.616-22,2-.3-8.7.81-18.81-1-26z" fill="#fff"/></g><g id="change1_49"><path d="m264,132.07c-2.375,2.952-6.058-1.209-9-1-6.347,1.987-7.665,9.001-7,18 4.702,5.298 13.361,6.639 24,6-.701,4.368 1.701,5.632 1,10-15.584-2.721-48.746-3.313-44-29-.515-3.485-6.534-1.466-10-2-2.001-2.999-3.755-6.245-7-8 2.582-2.751 8.255-2.412 13-3 7.53,8.47 30.7,1.31 39,9z" fill="#fff"/></g><g id="change1_50"><path d="m131,157.07c-7.773.106-9.978-5.355-13-10-8.77-7.422-23.306-4.891-34-4 1.818-21.097 22.721-23.32 34-11 1.883,2.057 1.976,5.414 4,8 4.59,5.87 15.29,9.97 9,17z" fill="#fff"/></g><g id="change1_51"><path d="m208,126.07c11.11,8.223 18.773,19.894 26,32-10.117-3.512-16.93-18.188-27-25 1.38-1.29.99-4.34 1-7z" fill="#fff"/></g><g id="change1_52"><path d="m313 165.07c-2.979-4.774 1.361-9.637 3-13-3.896-1.863-3.441 9.201-9 9-4.719-4.93 1.519-12.059 3-17-4.723 1.611-2.922 9.745-8 11-3.17-13.723 4.179-24.993 14-29-2.37 10.5 8.72 33.99-3 39z" fill="#fff"/></g><g id="change1_53"><path d="m176,127.07c-1.462,10.538-5.954,18.046-14,22-2.729-6.749 5.343-11.309 4-20 3.58-.42 5.34-2.66 10-2z" fill="#fff"/></g><g id="change1_54"><path d="m278,128.07c-.437,1.23-1.28,2.054-3,2-.47-2.13 1.43-1.9 3-2z" fill="#fff"/></g><g id="change1_55"><path d="m286 137.07c-2.05 3.003-7.659 2.128-10 0-1.26-9.34 10.05-5.83 10 0z" fill="#fff"/></g><g id="change1_56"><path d="m164,133.07c-2.434,5.9-3.361,13.306-7,18-2.964-3.036.964-12.964-2-16 .74-2.85 6.42-4.08 9-2z" fill="#fff"/></g><g id="change1_57"><path d="m253,134.07c17.542-.453 25.336,4.493 34,14-.547,3.513-5.8,1.605-8,1-.101-5.509-6.924-8.696-11-7 2.845,1.489 3.433,5.234 3,10-11.043,1.007-13.04,1.009-22-4-.169-2.503 1.536-3.13 3-4-.733-.934-1.818-1.515-3-2 .31-1.357 2.504-.83 4-1-4.82-3.82.33-.94 0-7zm4,3c.843,4.51-2.34,4.993-3,8 1.837,1.497 2.493,4.173 5,5 8.15-1.72 6.71-15.58-2-13z" fill="#fff"/></g><g id="change1_58"><path d="m153,169.07c-7.4-.343-5.531-11.657-6-19-.317-4.969-2.128-9.6 0-13 1.862-.138 3.342-.658 4-2 1.313.354 1.573,1.761 3,2-1.67,12.21 1.41,18.88-1,32z" fill="#fff"/></g><g id="change1_59"><path d="m169,156.07c-.99-2.677-6.092-1.241-6-5 7.054-3.613 8.489-12.844 20-12v19c-8.703-.025-13.821,8.831-18,10 1.11-4.22 3.18-7.48 4-12z" fill="#fff"/></g><g id="change1_60"><path d="m342,139.07c8.187,4.339 11.614,18.123 9,30-4.039-3.96-9.068-6.932-16-8 2.56-2.493 9.202-.585 11,1-1.252-6.229-10.958-2.982-20-3 4.907-4.426 13.772-4.894 17-11-.84-2.49-1.31-5.36-1-9z" fill="#fff"/></g><g id="change1_61"><path d="m112,145.07c-12.064.936-14.413,11.587-26,13-.696-3.671-1.726-7.603 0-11 6.451-3.89 17.83-5.35 26-2z" fill="#fff"/></g><g id="change1_62"><path d="m263,147.07c-3.041.041-6.582.582-6-3 1.97-1.85 7.36-1.49 6,3z" fill="#fff"/></g><g id="change1_63"><path d="m273,147.07c4.518,2.148 5.792,7.542 13,7v16c-12.42.42-11.76-12.24-13-23z" fill="#fff"/></g><g id="change1_64"><path d="m319,149.07c6.793-.874 13.178-2.155 21-2-3.523,5.487-16.438,6.882-20,9-.32-2.35-1.58-3.75-1-7z" fill="#fff"/></g><g id="change1_65"><path d="m197,151.07h3c.319,2.319-.161,3.839-1,5-.804-.529-1.624-1.043-3-1-.13-1.79 1.22-2.11 1-4z" fill="#fff"/></g><g id="change1_66"><path d="m161,152.07c1.163,2.141-.612,8.257-4,9-.54-4.68-2.35-9.31 4-9z" fill="#fff"/></g><g id="change1_67"><path d="m201,152.07c3.465-.132 5.805.861 5,5-1.907,1.877-1.81-.593-5,0v-5z" fill="#fff"/></g><g id="change1_68"><path d="m155,169.07c1.5-5.833 6.885-7.782 8-14 2.409-.409 2.174,1.826 5,1-2.24,6.5-4.05,19.25-13,13z" fill="#fff"/></g><g id="change1_69"><path d="m216,156.07v4c-1.413,1.428-4.857-.218-7-1v-3c1.89-1.98 4.72-.48 7,0z" fill="#fff"/></g><g id="change1_70"><path d="m293,156.07c6.749,7.251 18.808,9.192 20,22-.264,3.403-4.504,2.829-6,5-.663,3.671-1.064,7.603-2,11-4.559-3.441-2.95-13.05-6-18-3.045-1.621-6.658-2.675-9-5-.66-6.66 1.16-10.84 3-15z" fill="#fff"/></g><g id="change1_71"><path d="m193,159.07c2.389-3.964 6.62.219 11,0-1.85,2.63-7.66,1.57-11,0z" fill="#fff"/></g><g id="change1_72"><path d="m217 157.07h3v3h-3v-3z" fill="#fff"/></g><g id="change1_73"><path d="m221,157.07c2.356-.022 2.944,1.723 6,1 .725,3.059-1.725,2.941-1,6-1.161-.839-2.681-1.319-5-1v-6z" fill="#fff"/></g><g id="change1_74"><path d="m195,163.07c-5.072.922-6.961.824-10-2 1.22-3.74 10.64-2.33 10,2z" fill="#fff"/></g><g id="change1_75"><path d="m228,159.07c2.319-.319 3.839.161 5,1 .726,3.059-1.725,2.941-1,6-5.59-.09-4.45-2.36-4-7z" fill="#fff"/></g><g id="change1_76"><path d="m184,195.07c-4.803.242-4.976-5.972-10-6-4.104-.023-8.026,2.28-8,7 .07,12.547 25.309,4.891 37,4-11.073,5.583-18.329,11.377-32,10-4.457,6.543-7.232,14.768-17,16 .305-16.305-1.769-30.231-1-47 2.347.986 4.913,1.754 8,2-.153,3.181-2.267,4.399-2,8 10.308-2.025 14.052-10.615 18-19 6.557-2.443 14.687-3.313 20-7 4.205.205 8.36.36 9-3 3.715,3.157 8.314,2.078 13,3 8.003,1.574 16.2,7.691 24,9 9.278,1.557 19.765-1.433 26,6h10c-1.545,4.121-8.916,2.417-12,5 .197,3.863.036,7.369-1,10 5.462-.951 5.921-4.848 5-10 11.264.474 15.936.547 23-3 .477,4.363 3.165,3.395 3,7-.288,6.284-7.372,5.404-15,5 1.92,7.617-.465,15.033-4,20-4.996-.671-3.414-7.919-6-11-3.038,1.233 1.084,3.439 0,6-31.424,4.415-43.17-1.696-78,0 2.365-3.302 7.974-3.359 12-5 1.382-4.048-2.17-3.163-2-6 3.111-1.889 3.675-6.325 7-8 22.014-.78 36.071,1.043 53,6-11.339-8.117-29.559-7.146-48-8-7.76-.359-19.21-2.389-22-1-4.44,2.21-5.61,9.09-10,10zm73-18c-12.419-4.932-32.57-2.555-45-2-10.876.485-21.738-.2-33,4 .261,2.928-2.261,3.072-2,6 2.522,3.381 5.238.624 10,1 .01-2.656-.378-5.711 1-7 31.896-2.117 48.432-4.982 75,1-.29-3.55-4.19-2.28-6-3z" fill="#fff"/></g><g id="change1_77"><path d="m240,168.07c-2.823,1.172-4.247.199-7-1 .319-2.348 1.58-3.753 1-7 3.247-.58 4.652.681 7,1-1.38,1.29-.99,4.35-1,7z" fill="#fff"/></g><g id="change1_78"><path d="m187,165.07c-4.857-.276-9.276,2.713-12-1 2.15-2.75 11.93-5.43 12,1z" fill="#fff"/></g><g id="change1_79"><path d="m319,164.07c-.306-2.306 2.889-1.111 3-3 2.066-.197 11.478-.036 6,1-3.64.55-4.61.71-9,2z" fill="#fff"/></g><g id="change1_80"><path d="m242,162.07h5v5c1.777-1.223.205-5.795 5-4v7c-6.032-2.045-4.493-.045-12,0 .53-2.8 1.47-5.2 2-8z" fill="#fff"/></g><g id="change1_81"><path d="m122,171.07c-3.511.483-3.289,1.157-6,0-1.562,2.438-2.067,5.933-4,8h-5c-3.106.894-1.004,6.996-3,9-7.418.751-8.602-4.731-11-9 3.9-8.51 23.76-24.79 29-8z" fill="#fff"/></g><g id="change1_82"><path d="m317,170.07c1.172-5.956 16.682-8.907 25-6 2.186.764 3.079,5.427 6,3-.723,3.056 1.022,3.644 1,6-11.09-6.25-20.21-10.81-32-3z" fill="#fff"/></g><g id="change1_83"><path d="m253,164.07c2.465-.132 4.818-.151 6,1-.089,3.911-1.224,6.776-6,6v-7z" fill="#fff"/></g><g id="change1_84"><path d="m139 165.07h4c-1.822 6.822 5.525 4.475 4 11-4.4-1.9-9.96-5.81-8-11z" fill="#fff"/></g><g id="change1_85"><path d="m177,169.07c-2.63,1.035-6.526,1.586-6-3 2.29-2.17 6.24-.36 6,3z" fill="#fff"/></g><g id="change1_86"><path d="m264,172.07c-2.358-1.288-1.86.131-5-1-.022-2.356 1.723-2.944 1-6 3.056-.723 3.644,1.022 6,1-.8,1.87-1.67,3.66-2,6z" fill="#fff"/></g><g id="change1_87"><path d="m266,174.07c-3.638-3.852 3.001-9.916 7-6-.65,3.69-3.42,5.25-7,6z" fill="#fff"/></g><g id="change1_88"><path d="m344,198.07c.086-1.419.165-2.832-1-3 .768-3.233 2.768-5.233 6-6-1.273-4.238-3.262.933-7,0-1.76-3.431.173-6.461 2-9-4.12,1.547-5.737,5.596-13,4-1.151-1.182-1.132-3.535-1-6-3.305.029-2.445,4.221-5,5-3.921-1.746-8.801-2.532-8-9 14.227-16.49 44.623,3.702 32,23-2.83-.82-2.59,1.41-5,1z" fill="#fff"/></g><g id="change1_89"><path d="m279 171.07c-1.927 5.154-4.579 6.189-11 5 3.86-1.61 6.04-10.51 11-5z" fill="#fff"/></g><g id="change1_90"><path d="m174,174.07c-2.745,2.244-7.255-.149-10-1 1.87-2.92 10-5.03 10,1z" fill="#fff"/></g><g id="change1_91"><path d="m153,171.07c6.16-.319 8.754,3.011 7,8-3.469.802-3.844-1.489-7-1v-7z" fill="#fff"/></g><g id="change1_92"><path d="m284,175.07c-3.044-.283-3.889,3.204-6,1 .39-3.27 5.48-5.75 6-1z" fill="#fff"/></g><g id="change1_93"><path d="m115,177.07c2.081-2.169 3.232.122 5,1-.429-1.904-2.154-2.512-2-5 12.956,1.85 20.697-3.908 26,9-12.064-.855-17.97,1.728-24-3 .332,6.234.332,6.766 0,13-2.82-3.84-2.91-10.42-5-15z" fill="#fff"/></g><g id="change2_4"><path d="m263,180.07c-26.568-5.982-43.104-3.117-75-1-1.378,1.289-.99,4.344-1,7-4.762-.376-7.478,2.381-10-1-.261-2.928 2.261-3.072 2-6 11.262-4.2 22.124-3.515 33-4 12.43-.555 32.581-2.932 45,2 1.81.72 5.71-.55 6,3zm-82,5c1.005-1.995 4.422-1.578 4-5-3.35-.93-6.69,3.2-4,5z" fill="inherit"/></g><g id="change1_94"><path d="m163,175.07c3.056-.723 3.644,1.022 6,1-.163,1.163.221,1.779 1,2-.121,5.546-4.8,6.533-9,8 1.13-3.2 2.03-6.63 2-11z" fill="#fff"/></g><g id="change1_95"><path d="m292,177.07c-.646,3.021-4.542,2.791-6,5-2.78-2.52 3.55-4.39 6-5z" fill="#fff"/></g><g id="change1_96"><path d="m283,180.07c.437-1.23 1.28-2.054 3-2-.44,1.23-1.28,2.05-3,2z" fill="#fff"/></g><g id="change1_97"><path d="m185,180.07c.422,3.422-2.995,3.005-4,5-2.69-1.8.65-5.93 4-5z" fill="#fff"/></g><g id="change1_98"><path d="m116,181.07c-.179,4.846 1.319,8.014 2,12-4.427.476-4.973-1.376-8,0-.619-4.381-2.595-7.405-3-12h9z" fill="#fff"/></g><g id="change1_99"><path d="m122,184.07h24v6c-9.371-.15-18.281.44-24-1v-5z" fill="#fff"/></g><g id="change1_100"><path d="m314,233.07c-8.616-5.541 1.233-20.063-7-27-.838-9.505 5.341-11.992 4-22 1.758.575 5.875-1.208 6,1 3.896,5.661 2.764,14.511 2,25-.64,8.8.93,20.35-5,23z" fill="#fff"/></g><g id="change1_101"><path d="m318,186.07c6.324-2.968 13.564,1.751 21,1 .405,4.595 2.381,7.619 3,12-5.611-1.031-13.193-1.349-20-2-.97-4.03-1.85-8.15-4-11z" fill="#fff"/></g><g id="change1_102"><path d="m106,202.07c-5.077-.979.235-17.067 2-15 3.16,3.7-1.79,10.22-2,15z" fill="#fff"/></g><g id="change1_103"><path d="m201,188.07c.431-2.236 4.928-.405 7-1-3.779,3.887-4.429,10.904-11,12-.12-4.57 8.81-8.09 4-11z" fill="#fff"/></g><g id="change1_104"><path d="m200,189.07c-1.242,3.091-3.301,5.366-6,7-2.928.261-3.072-2.261-6-2 1.17-4.13 6.56-8.35 12-5z" fill="#fff"/></g><g id="change1_105"><path d="m107,234.07c.889-7.983 1.195-15.901 1-27 3.708-.708 4.292,1.708 8,1 2.994-1.006 1.974-6.026 3-9 2.168-.168.453,3.547 1,5 2.295-2.039.362-8.305 1-12 6.98-1.514 12.894.604 25,0v21c-8.189,1.283-15.119.438-24,0 .22-3.22-1.769-4.231-1-8-2.53,11.8 1.23,29.89-14,29zm23-22c.314-1.352 1.423-1.91 1-4h-4c-.28,2.62.36,4.3 3,4zm11,0v-4h-4c-.78,3.45.56,4.78 4,4z" fill="#fff"/></g><g id="change1_106"><path d="m169,192.07c2.995.658-.956,2.138 0,4-2.49-.15-.29-3.38 0-4z" fill="#fff"/></g><g id="change1_107"><path d="m119,194.07c.651-2.82 1.161,2.303 1,3-.46,2.01-1.88.81-1-3z" fill="#fff"/></g><g id="change1_108"><path d="m147,193.07c1.163-.163 1.779.221 2,1 .681,12.319 1.391,24.609 1,38h-7c5.17-9.16 4.03-24.63 4-39z" fill="#fff"/></g><g id="change1_109"><path d="m294,193.07c1.615-.282 1.722.945 3,1-2.892,15.108-1.244,34.756-5,49-9.243-3.423-10.877-14.457-13-25 8.271-1.729 5.415-14.585 8-22 3.748,7.635.535,23.77 0,38 4.129-3.23 2.556-9.605 3-20 .291-6.82 1.054-10.882 1-18 1.44-.56 2.44-1.56 3-3z" fill="#fff"/></g><g id="change1_110"><path d="m110,194.07c3.22-.22 4.231,1.769 8,1-1.048,3.285-.479,8.188-2,11-4.449.783-6.001-1.332-10-1 1.86-3.14 1.85-8.15 4-11z" fill="#fff"/></g><g id="change1_111"><path d="m299,195.07c3.879,1.873 5.754,8.514 4,13-2.409.409-2.174-1.826-5-1-.06-5.51.04-9.93 1-12z" fill="#fff"/></g><g id="change1_112"><path d="m194,198.07c-3.384,2.283-8.442,2.891-14,3-.23-6.41 11.03-5.58 14-3z" fill="#fff"/></g><g id="change1_113"><path d="m173,199.07h2c.467,2.134-1.429,1.905-3,2 .19-.81 1-.99 1-2z" fill="#fff"/></g><g id="change1_114"><path d="m343,204.07c-6.778,1.895-16.332-.312-22-1v-3c5.66-.79 19.53-1.68 22,4z" fill="#fff"/></g><g id="change1_115"><path d="m322,205.07c5.913,1.42 13.505,1.162 20,2 .327,8.664-.429,13.168-1,19-10.188-.052-9.444-1.194-21-1-.19-7.52.45-14.21 2-20zm3,19c2.729.729 2.013-1.987 4-2 .17-2.503-1.536-3.13-3-4-1.21,1.56-3.2,3.9-1,6zm9,0c6.519,1.3 7.538-5.617 1-5-.84,1.16-1.32,2.68-1,5z" fill="#fff"/></g><g id="change2_5"><path d="m127,208.07h4c.423,2.09-.686,2.648-1,4-2.64.3-3.28-1.38-3-4z" fill="inherit"/></g><g id="change2_6"><path d="m137,208.07h4v4c-3.44.78-4.78-.55-4-4z" fill="inherit"/></g><g id="change1_116"><path d="m312,300.07c-3.027-1.376-3.572.476-8,0-6.053-7.026-2.782-16.658-4-26-1.258-9.652-6.549-18.121-6-27 .173-2.792 2.449-4.491 3-7 2.103-9.572-.916-20.037 1-29 5.331-.051 8.91.107 11,1-1.954,10.651.148,16.202 3,24 1.184-.293 3.777-4.028 5-1 .17,2.503-1.536,3.13-3,4-.056,4.389 3.309,5.358 4,9-2.14,16.31-3.48,33.83-6,52z" fill="#fff"/></g><g id="change1_117"><path d="m175,212.07c.428,2.762-3.728.938-4,3-2.95-1.44 1.19-4.03 4-3z" fill="#fff"/></g><g id="change1_118"><path d="m122,215.07c10.195.201 18.055-.587 24,2-.716,5.88-6.392,3.018-9,3-3.975-.027-8.406.165-15,0v-5z" fill="#fff"/></g><g id="change2_7"><path d="m326,218.07c1.464.87 3.17,1.497 3,4-1.987.013-1.271,2.729-4,2-2.2-2.1-.21-4.44 1-6z" fill="inherit"/></g><g id="change1_119"><path d="m182,221.07c-.528,5.138-7.223,4.11-11,6-4.193,6.473-10.422,10.912-18,14-6.534-12.071 10.739-14.409 15-22 3.25,2.08 10.88-.21 14,2z" fill="#fff"/></g><g id="change2_8"><path d="m335,219.07c6.538-.617 5.519,6.3-1,5-.32-2.32.16-3.84 1-5z" fill="inherit"/></g><g id="change1_120"><path d="m121,222.07h23c-.365,4.635-2.526,7.475-5,10-11.147-1.011-12.355.056-22-1 .62-3.71 2.81-5.85 4-9z" fill="#fff"/></g><g id="change1_121"><path d="m230,238.07c-.027-6.325-8.568-9.407-8-13 18.588.946 30.841.808 51,1-1.649,3.733 2.257,9.439 7,10-3.21,6.71-11.821,4.222-19,5-10.731,1.164-22.121,2.535-28,10 11.122-7.911 35.328-7.96 49-10 2.094,2.212.784,6.66-1,8 5.633,6.149 5.198,23.086 10,26-17.293-5.364-35.743-6.344-52,3-.816-6.517-2.286-12.38-2-20-1.694,6.973-2.112,15.222-4,22-3.51-1.157-3.065-6.268-3-11-4.285.048-2.666,6.001-3,10-13.24-8.616-36.509-15.654-55-10 8.378-7.423 27.803-8.896 40-4-3.252-2.543-7.852-4.532-12-5-13.702-1.546-27.756,7.36-37,9-1.088-4.072 3.215-10.553 6-14 15.213-7.579 34.9-5.883 54-3-15.728-6.936-39.449-5.971-55,2-4.936-9.485 5.233-11.942 4-21 14.088-15.683 38.003,3.12 47,14-3.423-9.248-16.943-17.053-29-21 11.36-3.97 32.66-2.62 40,12z" fill="#fff"/></g><g id="change1_122"><path d="m277,226.07c1.383,2.284 2.038,5.295 3,8-4.425.759-3.438-3.896-6-5 .11-1.89 3.31-.69 3-3z" fill="#fff"/></g><g id="change1_123"><path d="m319,227.07c9.995.134 13.953.11 22,2-1.035,2.258-12.115,2.517-19,1-1.66-.36-3.57-.41-3-3z" fill="#fff"/></g><g id="change1_124"><path d="m170,232.07c2.711,4.745-3.594,9.048-5,13 .595,2.072-1.236,6.569 1,7-5.838,7.162-1.313,24.687-14,25-1.319-10.986 5.204-14.129 4-25 6.12-5.22 8.74-13.92 14-20z" fill="#fff"/></g><g id="change1_125"><path d="m319,232.07c8.083-.75 13.477,1.19 21,1 .146,5.146-1.978,8.022-4,11-9.605-.634-10.662.023-20-2-.69-5.02 4.02-4.65 3-10z" fill="#fff"/></g><g id="change1_126"><path d="m148,238.07c3.049,8.023 5.076,15.47 1,25-12.158-.381-19.668-.188-26,1-2.898.543-8.229-2.153-7,4 .587,5.163 6.659,2.594 10,3 8.192.995 17.181,1.607 22,2 .573,7.906-10.466,4.201-17,5-1.774,4.747-1.946,12.328-3,15-7.455-1.085-10.947.194-21-2-1.604-17.578-1.746-38.271 1-54 14.11.07 30.05-.44 40,1z" fill="#fff"/></g><g id="change1_127"><path d="m283 239.07c8.513 5.625 6.595 15.107 9 24 1.361 5.031 6.17 8.939 5 15-11.108-6.183-5.848-19.271-14-28 2.14-4.19 1.69-6.48 0-11z" fill="#fff"/></g><g id="change1_128"><path d="m161,240.07c.55,4.55-2.545,5.455-6,6 .77-3.23 2.77-5.23 6-6z" fill="#fff"/></g><g id="change1_129"><path d="m120,265.07c-.693.807-1.556,2.739 0,3-1.42,4.39-4.12-4.7 0-3z" fill="#fff"/></g><g id="change1_130"><path d="m141 265.07c-1.155 1.502-3.51 4.211 0 5-4.554 1.526-11.985-1.809-19-2 4.77-4.73 8.67-1.97 19-3z" fill="#fff"/></g><g id="change1_131"><path d="m143,266.07c.125-2.208 4.242-.425 6-1-.2,3.466-.833,6.5-5,6 .77-.68 2.6-5.96-1-5z" fill="#fff"/></g><g id="change1_132"><path d="m226,286.07c-10.622.4-17.84-11.16-30-13-16.465-2.491-28.103,8.479-41,10 3.659-9.192 23.352-14.605 39-13 9.56.98 29.56,6.93 32,16z" fill="#fff"/></g><g id="change1_133"><path d="m235,274.07c3.034-.367 2.076,3.257 3,5-1.794-.127-2.109,1.224-4,1-.02-2.35 1.72-2.94 1-6z" fill="#fff"/></g><g id="change1_134"><path d="m296,285.07c-11.672-5.877-28.938-9.019-43-4-2.974,1.062-6.603,3.322-9,5-2.963,2.074-5.412,7.551-10,6 .506-14.524 21.755-19.017 38-18 9.78.61 22.16,3.07 24,11z" fill="#fff"/></g><g id="change1_135"><path d="m208,291.07c-12.532,4.04-29.262,4.84-38,15 7.035-.424 20.458-7.703 33-6 5.627.764 13.429,4.154 14,9 1.455,12.346-14.435,7.729-21,14 .594,4.255 3.961,1.934 2,7 3.183,1.483 9.327.006 12,2-5.199,7.468-23.694,1.639-26,12 5.495,1.907 22.724-7.135 28,1-4.663,5.432-21.996,1.252-25,11 6.404,2.644 13.038-1.085 21,0-.752,6.605-8.309.81-10,7 3.624,2.906 8.56-1.402 14,0 1.999,4.501-.11,10.4-4,12 4.25,7.645-.048,16.729-3,23 .611,4.517 6.396-1.94 6,4-9.236,2.388-18.917-3.569-22,9 4.282,4.318 11.58-2.177 20,0 3.156,12.127 4.375,31.905-3,43-1.053,3.72 3.373,1.961 4,4-5.296,14.873-22.6,10.461-32,2-1.036-17.637 2.808-46.097-7-58-2.849-7.998.555-18.636-1-25-.69-2.824-3.276-4.059-4-7-1.363-5.54 1.257-12.235-3-17 2.789-21.62-5.251-45.96-6-64 8.234-9.169 28.02-14.937 43-11 3.834-.182.363.818 1,3 2.101,1.232 3.899,2.768 6,4-.43,2.23-2.3,5.42 1,6z" fill="#fff"/></g><g id="change1_136"><path d="m134,281.07c4.565.435 11.011-1.011 14,1-5.361-.753-6.077,8.364-11,11-.183,3.533 4.232,5.474 2,8-10.36.07-8.46-13.87-5-20z" fill="#fff"/></g><g id="change1_137"><path d="m157,304.07c-3.059.725-2.941-1.725-6-1-12.999,9.929-27.759,5.822-46,6-2.047-3.287-.54-10.126-1-15 9.379-.712 16.278,1.055 25,1 2.34,3.327 3.406,7.927 7,10 3.469.802 3.844-1.489 7-1 .123-4.456-2.467-6.2-3-10 2.268-2.066 3.552-5.115 5-8 11.56-3.88 10.06,9.45 12,18z" fill="#fff"/></g><g id="change1_138"><path d="m228,288.07c5.101,2.232 4.716,9.951 7,15-1.064,2.27-6.286.381-9,1 .28-5.92.85-9.27 2-16z" fill="#fff"/></g><g id="change1_139"><path d="m296,292.07c7.902,4.166 1.851,13.432 1,21-.705,6.268 1.818,13.154 1,20-.239,1.999-1.821,4.092-2,6-.431,4.602.653,9.569 0,14-1.329,9.011-7.727,16.428-9,25-.854,5.745-.249,11.004-1,17-1.343,10.721-8.223,19.819-9,28-1.354,14.25 12.478,32.541-5,40 5.125-10.203 3.316-23.911 0-37-.38-3.38 1.733-4.267 3-6-2.025-2.642-4.106-5.227-9-5 .353-1.313 1.761-1.573 2-3-.223-3.11-4.977-1.689-8-2 11.303-1.547 18.27-12.146 16-24 1.302-2.031 4.278-2.389 6-4 .871-7.653-.634-10.814 0-15-2.413-3.399-5.671-.5-12-2 6.212-2.454 13.265-4.068 14-12-.529-.804-1.043-1.623-1-3h-7c5.646-4.021 15.199-4.135 18-11-1.596-3.737-3.474-7.193-9-7 1.581-1.481 3.47-5.169-1-5 2.649-1.351 6.416-1.585 8-4-1.067-.933-.311-3.688-3-3 4.862-4.045-.679-6.771 5-10-1.194-2.473-3.424-3.91-6-5 .353-1.313 1.761-1.573 2-3-.697-3.254-4.553-1.796-5-3-1.55-7.55 9.77-2.23 11-7z" fill="#fff"/></g><g id="change1_140"><path d="m313,303.07c2.445,4.555 4.512,9.488 7,14-8.71,1.68-10.95.164-20,0-.98-10.3 2.34-18.25 13-14z" fill="#fff"/></g><g id="change1_141"><path d="m158,308.07c.809,4.809-4.388,3.612-3,9h-7c3.898-2.646-3.855-8.509-4-7 .14-1.41 12.27-8.57 14-2z" fill="#fff"/></g><g id="change1_142"><path d="m235,310.07c3.413,18.605 3.076,46.631-2,72-.587,2.937-1.143,7.521-4,9-5.032-3.359-1.834-8.941-2-13-.094-2.296-.862-4.728-1-7-1.07-17.689 3.283-33.977 1-59 .354-1.313 1.761-1.573 2-3 3.06-.72 3.64,1.02 6,1z" fill="#fff"/></g><g id="change1_143"><path d="m104,311.07c13.939-.055 21.908.011 33,2-.681,6.003-6.809,3.766-11,4-6.789.379-12.333-1.609-22-1v-5z" fill="#fff"/></g><g id="change1_144"><path d="m118,347.07c-8.18-6.343-16.518-17.9-14-29 11.749-.748 20.403,1.597 32,1v9c-6.213,3.901-20.781,1.557-26,1-.32,5.19 6.87,10.98 8,18z" fill="#fff"/></g><g id="change1_145"><path d="m300,319.07c5.011-.74-1.331,3.686 2,4-1.7,3.5-2.57-1.95-2-4z" fill="#fff"/></g><g id="change2_9"><path d="m320,321.07c.468,3.114-2.515,3.574-4,2 .24-1.76 1.72-2.28 4-2z" fill="inherit"/></g><g id="change1_146"><path d="m321,327.07v9c-9.384-.099-9.75-1.238-16,0 .888-1.778 2.792-2.542 2-6-1.162-4.551-6.203-1.273-7-2 4.26-5.3 13.76.69 21-1z" fill="#fff"/></g><g id="change1_147"><path d="m303,329.07c4.177.669.465,6.208-2,3 .35-1.31 1.76-1.57 2-3z" fill="#fff"/></g><g id="change1_148"><path d="m111,332.07c5.24-.557 18.356-.369 25,1-.729,3.443-1.159,6.617-1,13-12.92,9.83-18.49-7.15-24-14z" fill="#fff"/></g><g id="change1_149"><path d="m300,334.07c.89.776 2.258,1.075 4,1-4.506,2.827.056,14.723-6,16 .54-5.79 1.08-11.58 2-17z" fill="#fff"/></g><g id="change1_150"><path d="m305,338.07c5.719-.719 8.934,1.066 14,1-3.727,5.396-6.461,16.707-17,12 .28-5.05 2-8.67 3-13z" fill="#fff"/></g><g id="change1_151"><path d="m91,411.07c-11.314,2.03-13.101-8.4-25-4-5.355,1.98-6.241,7.366-11,7-8.229-.634-6.36-12.641-16-14 23.875-6.77 50.267-6.426 74-7-4.18,9.16-20.082,6.59-22,18z" fill="#fff"/></g><g id="change1_152"><path d="m227,399.07h3c-.474,3.141 1.247,4.086 3,5-.758,3.646-3.192-.096-7,1-.02-2.35 1.72-2.94 1-6z" fill="#fff"/></g><g id="change1_153"><path d="m614,602.07v8c-22.778-32.222-57.82-52.18-84-81-17.133-12.52-38.03-21.148-55-32-6.125-3.917-10.938-9.166-17-13-6.236-3.943-14.105-6.229-21-10-6.514-3.563-12.527-8.396-19-12-13.504-7.518-28.827-14.028-43-20-14.709-6.198-30.53-11.293-46-16-12.637-3.845-24.862-5.089-36-7-3.022-.519-8.186-.461-10-4 2.554-5.335 8.351-2.195 12-2 15.205.812 26.631,6.317 38,10 50.05,16.211 92.66,37.796 133,62 27.802,16.681 55.159,31.372 79,51 24.22,19.94 47.74,45.01 69,66z" fill="#fff"/></g><g id="change1_154"><path d="m282,422.07c6.928,2.929 13.087.455 20,3 .792,3.458-1.112,4.222-2,6-5.886-3.836-10.25-2.263-18-1v-8z" fill="#fff"/></g><g id="change1_155"><path d="m331,431.07c15.353.983 31.688,9.643 47,14-3.192,2.808-9.812,2.188-12,6 .318,5.497 2.757,10.885-4,11-.513-4.862-4.694-11.903-14-11-1.84-10.49-11.44-13.23-17-20z" fill="#fff"/></g><g id="change2_10"><path d="m50,454.07c3.259,2.365-.923,5.664-1,8-18.044-4.044-13.612,14.388-21,21 6.321,10.341 19.811-3.256 29,3 2.059,3.274 5.174,5.492 8,8 5.333.333 9.767,1.566 13,4-2.954-.396-6.004.57-8,0-8.263-2.359-10.528-11.269-21-12-7.063-.493-11.609,4.482-21,3-1.181-1.485-.865-4.468-4-4 2.216-4.117 6.256-6.41 8-11-.167-2.833-1.833-4.167-2-7 2.736-10.16 19.245-2.5 20-13z" fill="inherit"/></g><g id="change1_156"><path d="m504,514.07c-1.399,3.511-8.664,1.426-14,1-10.047-12.709-23.28-15.617-43-15-2.498-4.168-6.504-6.829-10-10-4.678-1.572-3.322.829-8,1-8.004-2.329-14.733-5.934-26-5-3.743,1.463-5.916,6.11-10,8-2.38,1.102-5.8.208-8,1-5.973,2.15-12.904,7.78-14,13-1.655,7.886 3.793,10.622 4,22-3.03,2.052-5.97-2.899-9-4-5.122-.688-7.123.323-12-3-4.032,2.258-6.913-.67-10,0-7.782,1.688-9.663,12.17-18,10-.033-3.033 3.509-2.491 6-3 4.557-5.11 9.173-10.16 10-19 8.037-6.63 26.514-2.819 24-20 6.906-4.511 15.085-4.338 24-5 5.201-3.403 8.746-11.75 7-19-1.007-4.183-4.679-4.85-5-9 8.254-8.055 26.595,6.109 34,11 9.686,6.396 19.083,9.662 27,14 8.994,4.928 16.126,12.118 24,17 9.31,5.77 17.73,10.36 27,14z" fill="#fff"/></g><g id="change1_157"><path d="m516,534.07c-.844-4.178 1.943-4.723 2-8 13.471,6.529 20.427,19.573 33,27-13.78,2.97-22.78-13.98-35-19z" fill="#fff"/></g><g id="change2_11"><path d="m446,610.07c1.068,2.982.799,7.252-2,10-9.635,1.328-16.014-4.615-24-3-4.656.941-11.357,5.853-19,1 1.817-4.787 3.637,1.431 8,0 4.505-.594 4.833-3.267 8-4 1.872-.434 8.454-.586 11,0 8.23,1.9 14.31,8.57 18-4z" fill="inherit"/></g><g id="change2_12"><path d="m614,612.07c-3.02-2.313-4.404-6.263-8-8-3.34-.007-2.649,4.017-5,5-4.268-2.359-7.992-2.314-11,1 .098-6.473 7.001-5.264 11-3-.969-17.946-28.22-31.642-41-47-19.857-3.81-30.872-16.462-46-25-3.155-3.449 2.223-4.429 1-9-1.234-3.766-4.344-5.656-7-8-7.899.899-12.846-1.154-19-2-6.995-13.666-27.711-13.126-46-13-.43-4.237-1.895-7.439-4-10-4.646-.979-6.037,1.296-9,2-8.38-2.287-15.179-6.154-27-5-9.747,6.92-24.556,8.777-31,19-.408,10.081 6.378,13.656 4,23-10.857-1.732-22.084-9.648-33-6-7.49,2.504-6.76,9.792-14,13-3.371-.629-4.604-3.396-5-7 4.57-5.704 9.56-4.864 13-11 2.358-4.205.845-10.016 3-13 2.962-4.103 12.474-4.912 19-7 4.659-2.007 4.303-9.03 7-13 1.924.424 3.609-.686 2-1 3.206-.243 7.602-1.907 12-3-.325.081 3.905-.912 3-1 1.501.146-.801,2.172 1,2 2.182-.208 6.173-1.305 7-2 4.017-3.372 3.583-8.493 5-16-.814-4.186-5.36-4.64-8-7-.104-4.437 5.193-3.474 6-7-5.641-5.332-18.528-4.324-26-1-.667,3.892 1.715,12.681-6,12-2.556-2.778-2.722-7.944-6-10-3.982-1.745-6.491,1.219-10-1-2.414-1.989 1.664-4.761-1-7-7.338-5.995-15.047-11.619-22-18-7.213.547-10.319-3.014-18-2-2.972,1.027-1.542,6.459-5,7-6.266-3.07-10.275-.377-17,1-.242,6.575 1.761,10.905 1,18 1.65.724 5.529,2.67 10,1 5.813,7.159 18.457,4.321 21,13 3.756,12.814-11.242,29.003-26,28-7.832-.532-12.263-6.612-19-9-10.983,2.35-28.606-1.94-34,6-.149,7.851-2.313,13.688-10,14-5.695-4.954-6.708-11.595-7-20-14.349,1.651-23.436,8.564-30,18-10.459-3.541-19.691-8.309-30-12-2.28-7.31-3.374-16.854-13-20-10.832-3.54-27.956.286-36,3-4.026-6.641-11.293-10.04-16-16 2.417-6.206.038-9.062 0-13 10.391-14.808 33.134-7.92 49-8-1.089-7.577-7.524-9.809-14-12 1.063-15.175 21.876-6.843 34-10 .078-22.035-31.005-24.493-49-19-3.773.227-2.597,5.403-6,6-2.638,1.362-6.818,1.182-10,2-4.263,1.404-4.022,7.312-8,9-10.354,1.379-11.466-7.856-22-4-4.862,1.78-6.792,8.482-11,9-9.926,1.22-12.465-15.607-22-17-7.329-1.07-14.703,5.393-22,6-2.954.246-9.65,2.143-13-3 15.883-1.21 32.656-7.674 54-9 12.526-.778 23.628-3.78 35-4 22.028-.425 45.712-.217 76,5-.042,3.625-5.305,2.028-7,4 2.768,4.791 7.958,9.435 6,16-8.088,6.354-24.748-4.339-31,6 9.142,1.524 12.129,9.204 15,17-6.06,3.85-13.46-1.343-21-2-8.095-.706-16.046,1.446-24,2-4.01,1.124 1.778,7.587-6,6 1.074,4.812 3.125,7.94 0,12 3.872,5.795 10.369,8.964 14,15 17.646-6.452 44.376-7.742 50,17 8.94,3.117 19.619,8.508 27,10 4.39-.943 4.871-5.796 7-9 10.07-.947 17.763-12.613 28-7 1.747,3.419.53,7.164-1,10 .81,4.523 5.47,5.197 5,11 5.77-1.563 7.583-7.084 8-14 8.309-8.66 13.457-6.633 25-6 4.366,1.366 2.128-3.872 6-3 5.519,1.742 9.333,3.053 15,6 7.664,3.986 14.664,5.075 23-3 .534-.517 1.469-1.592 2-2 3.548-2.729 11.901-13.088 5-20-6.712-1.288-13.339-2.66-17-7-3.222,1.627-5.417.478-9,0-2.368,1.632-2.129,5.871-4,8-7.407,7.321-26.474,7.309-36,1-15.625-10.347-9.325-37.64-14-57-7.51-2.106-8.333,6.329-9,10-2.274,12.522 3.551,32.245-1,44-6.309,16.298-41.83,15.138-48-2 .741-16.042.263-30.488-3-44-1.03-4.264-3.181-8.381-4-12-1.284-5.672.687-10.176-4-13-54.89-5.305-116.22-4.929-162,7v-5c3.759-4.994 10.886-4.887 16-6 44.319-9.65 79.629-6.421 104-6 18.429.318 28.552.627 44,0-2.028-8.639-2.5-18.833-6-26 2.932-11.917-1.745-21.334-3-32-4.257-.591-6.614.72-10,1-2.387-1.613.811-8.811-3-9-2.328,9.006-.337,22.329-1,33-3.803,7.542-16.703,8.445-26,5-6.229-7.438-13.109-14.224-17-24 1.199-11.091-1.285-21.542 0-33 .742-6.619 3.227-12.723 3-21-.399-14.571.394-28.252 1-43 .462-11.248 2.28-22.262-1-31-2.504-6.67-11.236-11.756-14-18-2.032-4.592-.271-11.38-5-15 .666-10.97-5.117-19.696-3-30 2.398-11.669 18.469-13.606 22-21 .671-1.404-.042-13.149 0-21 .037-6.857 1.525-15.724 1-21-1.317-13.222-12.215-20.37-8-32 5.609-6.582 6.748-.632 10-7 2.989,2.011 9.435.565 14,1 .839,1.161 1.319,2.681 1,5 2.341-.325.971-4.362 3-5 8.995.546 17.795-1.017 22,0-1.469,5.531-3.504,10.496-3,18 4.515-4.485 5.136-12.864 13-14-.505-6.172 1.384-9.949 6-11-4.264-3.557.735-9.012 2-13 3.114-.552 6.517-.816 9-2 5.246-8.818 12.525-14.801 31-14 8.011.348 17.603,1.734 27,2 13.793.391 27.188-1.748 33,4 1.688,1.67 2.29,6.804 4,10 5.077,9.491 12.218,11.489 12,25 .909,4.909-4.191,3.809-4,8 6.489,1.614 15.551-1.526 21,0-1.36-1.574 2.474-2.474 1-9 7.217,1.675 10.154,1.632 18,2 3.084,3.583 3.403,9.93 5,15 1.338-1.896.867-8.293 1-14 3.121-1.198 8.033.199 11,2-1.908,15.25 2.962,28.19 2,41-.803,10.689-8.264,20.34-3,32 3.48,1.853 7.371,3.295 13,3 1.331,3.002 1.017,7.65 1,12 4.229,5.641 10.844,12.061 12,22 .714,6.131-2.322,13.958-2,21 .197,4.301 3.05,8.648 3,12-.145,9.761-7.912,15.574-11,21 .472,20.11-.431,27.358-6,42-5.719.719-8.934-1.067-14-1-4.271,7.355-4.103,16.405-5,25-.886,8.476-3.156,18.302-2,27 1.221,9.188 11.176,19.301 7,36-5.032,6.635-9.386,13.947-14,21-2.881-.119-6.546.546-8-1-10.212,8.454-12.432,24.901-14,42 6.783,5.858 15.336,6.824 24,9 11.725,2.944 23.965,6.463 37,11 35.449,12.339 80.815,36.264 117,57 14.202,8.139 27.923,15.909 41,25 37.551,26.104 73.325,56.722 105,90v10c-21.265-20.986-44.782-46.062-69-66-23.841-19.628-51.198-34.319-79-51-40.34-24.204-82.95-45.789-133-62-11.369-3.683-22.795-9.188-38-10-3.649-.195-9.446-3.335-12,2 1.814,3.539 6.978,3.481 10,4 11.138,1.911 23.363,3.155 36,7 15.47,4.707 31.291,9.802 46,16 14.173,5.972 29.496,12.482 43,20 6.473,3.604 12.486,8.437 19,12 6.895,3.771 14.764,6.057 21,10 6.062,3.834 10.875,9.083 17,13 16.97,10.852 37.867,19.48 55,32 26.18,28.82 61.222,48.778 84,81v2zm-137-112c-7.874-4.882-15.006-12.072-24-17-7.917-4.338-17.314-7.604-27-14-7.405-4.891-25.746-19.055-34-11 .321,4.15 3.993,4.817 5,9 1.746,7.25-1.799,15.597-7,19-8.915.662-17.094.489-24,5 2.514,17.181-15.963,13.37-24,20-.827,8.84-5.443,13.89-10,19-2.491.509-6.033-.033-6,3 8.337,2.17 10.218-8.312 18-10 3.087-.67 5.968,2.258 10,0 4.877,3.323 6.878,2.312 12,3 3.03,1.101 5.97,6.052 9,4-.207-11.378-5.655-14.114-4-22 1.096-5.22 8.027-10.85 14-13 2.2-.792 5.62.102 8-1 4.084-1.89 6.257-6.537 10-8 11.267-.934 17.996,2.671 26,5 4.678-.171 3.322-2.572 8-1 3.496,3.171 7.502,5.832 10,10 19.72-.617 32.953,2.291 43,15 5.336.426 12.601,2.511 14-1-9.27-3.64-17.69-8.23-27-14zm-293-458c-.351-8.606 2.275-21.939 4-34 25.558.114 43.954,2.261 68,2 4.159,4.876-.268,16.45 3,20 4.706-5.759 3.241-17.94-2-22-25.022.248-49.28-5.239-74-2-4.927,6.406-8.747,13.919-19,15 .457,8.833-3.398,11.458-5,20 9.639.628 8.164-15.156 14-15-2.618,4.382-5.823,8.177-6,15 4.669-.808 6.392.641 9-1-.868-2.161-2.359-8.083 2-9 7.44.439 3.3,10.483 6,11zm32-28c-12.417,1.774-30.138,15.946-31,21-.361,2.117 2.685,5.275 2,7 .648-4.685 5.866-4.8 4-12 10.098-10.32 34.311-18.356 50-11-6.07-4.679-15.32-6.383-25-5zm35,8c2.344-2.638.168-6.818 0-10-8.025,1.009-17.747-1.565-23,0 9.8,1.198 14.36,7.644 23,10zm-34-10c.8-.142 7.755.902 6-1-11.864.915-24.65-3.493-34,1-1.001,4.999-2.354,9.646-2,16 8.49-5.985 18.58-13.972 30-16zm36,14c5.521-1.056 4.918-12.809 0-14 2.42,5.742-1.32,10.274 0,14zm10,7c3.141,1.664 4.086-3.719 5-1 .393,3.607 1.294,6.706 2,10-2.942,1.425-3.784,5.544-8,3 .329,2.337 1.202,4.131 2,6h6c-.173-4.506-.488-9.155 4-9 .101-8.768-3.92-13.414-7-19h-4c-.62,5.131-2.59,6.145 0,10zm0,11c.89-5.557-1.92-7.413-2-12-5.462,2.74-8.243-9.229-13-7 7.42,3.914 9.18,13.485 15,19zm-12-11c-2.148-.97-7.488-7.887-7-5 2.34,1.048 4.67,7.265 7,5zm-9,1c-1.479-.521-2.521-1.479-4-2-1.05,2.529 3.37,4.432 4,2zm16,19c-.446-6.412-4.268-17.454-8-17 4.49,3.845 3.82,12.843 8,17zm9-10c1.93-2.048.677-6.553-1-8-2.91.752-2.93,8.304 1,8zm-89-5c.224.776.027,1.973 1,2 .012-1.322 1.753-.914 2-2-1.43-.39-1.69-1.2-3,0zm67,3c.182-2.182-.818-3.182-3-3-.69,2.689 2.07,1.932 3,3zm-139,26c2.839,6.345 2.625,13.035 6,19 5.818-1.619 18.1.456 24-3 1.997-6.665-.301-17.864 1-25-3.371-.295-6.831-.502-9-2-.344-6.323 1.321-14.654-5-15-2.255,4.078.489,13.156-6,13-2.73-3.46.639-7.504 0-12-1.454-1.546-5.12-.881-8-1-2.062.272-.238,4.428-3,4-.223-3.11-4.977-1.689-8-2-5.291,9.389 4.49,16.165 8,24zm31-25c-.759-1.653-8.241-1.653-9,0 .08,2.24 9.23,3.859 9,0zm59,56c8.758,1.758 10.424-3.576 12-9-2.906-2.934-7.189-4.576-6-9-3.056-.723-3.644,1.022-6,1-.324-6.204-6.083-6.352-9-12-2.881.119-6.546-.546-8,1-2.887-4.969-4.635-5.547-6-11-3.087,1.416-7.481.848-7-4 3.436-1.703 7.112,2.016 9-2-4.206-1.46-6.143-5.191-11-6-2.678.656-3.802,2.864-6,4 .922,14.434-16.216,14.402-10,31-1.754,2.246-6.031,1.969-9,3-.041,3.016-2.69,8.566 0,11 9.959-4.509 24.148-6.536 33-8-.769-3.769 1.22-4.78 1-8 5.069.402 4.585-4.748 8-6 1.3,6.634-5.617,5.05-5,11 1.008,2.326 3.442,3.225 7,3 2.352-.315.593-4.74 4-4 2.14,1.526 3.267,4.066 7,4 .399-3.133-5.055-5.522-3-7 2.582,4.085 8.141,5.192 10,10-4.729.395-8.346-.321-12-1-1.595-.738.228-4.895-3-4 .869,6.535-8.765,2.568-12,5 .656,9.426 7.429,14.698 7,23-.315,6.098-5.047,11.743-2,17 5.08-11.59 12.38-20.95 17-32.998zm-26-5c1.347,2.363 3.705,8.903 6,7-2.28-2.048-1.84-6.824-6-6.998zm-11,2c2.698,12.15 1.356,22.169 7,31 4.627-2.662 9.315-2.378 10-7 .157,1.177-.172,2.838 1,3 3.831-6.187 3.251-15.495-2-20 .452,3.994 3.091,13.808-1,16 3.35-13.23-2.11-28.247-15-22.998zm28,22.998c-3.472,6.235-6.852,12.853-10,19 7.178,2.178 5.683-4.317 11-4-3.806,4.861-1.278,16.056-2,24 4.564.897 5.668-1.665 9-2 .171-2.829-.86-6.86 2-7 8.068,3.932 17.977,6.023 28,8-2.519-11.481-19.611-8.389-32-10-1.104-3.027-1.895-10.127 0-13 5.768-.669 8.543.677 12-1 1.656-4.925-6.206-11.271 0-16 11.584,1.416 14.742-1.069 23-4-1.843-7.843 3.93-8.07 6-12-9.255,1.042-26.401,2.043-35,1 .614,1.386 3.85.15 4,2-8.202,4.464-1.621,23.713-9,29 4.683-9.713-.244-20.121 6-29-7.2,1.44-9.85,9.35-13,15zm-22-74.998c-16.526-.192-21.346,11.32-21,28-2.596,2.737-5.186,5.48-6,10 1.454,1.546 5.119.881 8,1-.89-16.789 5.42-33.509 19-39zm17,0c-6.4-1.155-2.2,3.054 0,0zm26,7c-3.317-6.358-18.856-5.798-25-6 7.74,2.032 19.11,5.413 25,6zm38-2c-.228-1.772 1.008-5.008-2-4 .14,1.862.66,3.342 2,4zm-70,3c-1.059-3.726 2.105-3.228 3-5-3.04.627-8.613-1.28-10,1 2.59,1.075 3.72,3.616 7,4zm-47,5c2.729.09 2.013-1.666 4,0-3.638-1.641.175-9.192-3-9 .78,4.118-1.54,5.132-1,9zm175-1c-1.406-.261-1.14-2.193-2-3-17.419-1.63-39.896.014-53,6 18.806-3.188 32.072-5.078 49-4 6.383,5.259-.331,10.447 0,18 5.88-1.79 6.31-9.02 6-17zm2,3c1.328,9.558-7.795,14.276-7,25 8.477.654 18.215,1.504 29,2 .727-7.391-.539-15.677-1-23-.309-4.915 1.948-11.001-2-14-6.805-.139 1.046,14.248-6,16-4.591-2.742-2.883-11.783-6-16-3.003-1.331-7.65-1.017-12-1-.02,6.529 4.3,5.951 5,11zm-129,6c1.73-2.878 5.122-13.835 1-16-.49,4.537-2.92,12.378-1,16zm4-9c7.963-1.188 4.452,8.771 2,11 3.059.726 2.941-1.726 6-1-2.316-4.351-1.336-11.997-4-16 .05,3.382-2.33,4.338-4,6zm-44-5h-4c-1.59,4.649 5.17,3.471 4,0zm-3,6c3.37,3.037 3.03-3.697 0,0zm130,2c.578,5.578-1.156,8.844-2,13 3.554-.113 3.635-3.698 8-3-.564-4.564 1.772-6.228 1-11-2.66.01-5.71-.378-7,1zm11,0c3.944,5.856 9.445,8.476 12,17 2.609,8.704-1.964,21.66 7,23 1.646-18.752-2.356-24.472 4-40-9.55-2.114-13.65.171-23,0zm-93,5c.132-1.314.151-7.235-1-4-.13,1.314-.15,7.235 1,4zm58,27c-.555-.003-1.135.81 0,1 10.882-5.455 20.234-17.761 18-33-1.97,14.694-8.32,25.01-18,32zm30-1c-.983,2.35-4.296,2.37-6,4 7.861,2.736 12.021-.621 20,0 .444-13.444-1.16-24.84-10-29-2.58,7.303-4.86,17.206-4,25zm-18-1h14c-1.926-6.227 4.078-14.176-1-17-5.99,4.01-8.14,11.855-13,17zm-145,21.998c5.746.746 6.987-3.013 9-6-3.118.525-8.121,2.377-6-3 8.594,6.083 15.771-5.189 26-4v-10c-6.082-.154-16.904-.673-24,1-2.294,1.04.474,7.141-2,8-.369-6.298 1.396-14.73-3-17 .78,12.244-1.31,23.42 0,31zm192-8c9.997-.26 14.479,2.145 24,1 2.426-4.574 3.822-10.178 5-16-8.84-.604-18.072-1.25-29-2-.39,6.43-1.58,11.18 0,17zm-65-6.998c-3.803.098-25.921-5.003-27,3 8.287,1.756 23.123-.303 34-2 3.973-.62 10.799.533 13-4-6.7-.084-12.8,2.815-20,3zm69,14.998c-7.652-14.142-19.682-2.651-25,3 1.41-5.923 8.229-6.438 10-12-8.39-2.299-11.697-1.695-24-2-3.185-1.482-3.899-5.434-7-7-.334,8.666-11.604,6.396-20,7 .994,2.006 1.951,4.049 3,6 5.53.898 14.333-1.907 17,3-1.175,3.192-3.44,10.515-1,14 3.268-1.964-.328-4.998 3-6 5.95-.744 4.366-.354 11-1 7.646,8.021 17.476,13.857 27,20 4.577-6.756 9.41-13.256 17-17-4.845-11.818-17.967-1.245-22,5 .57-7.43 8.86-7.13 11-13zm-153-11.998c-4.447-.447-7.289.711-10,2 5.271,9.729 9.679,20.321 15,30 2.381-1.953 6.146-2.521 9-4-3.11-10.89-8.16-19.84-14-27.998zm-15,2.998c-4.25-.506-11.144,4.292-15,8 4.986,6.021 19.564,7.76 18,17-2.719-8.232-20.259-20.465-27-9 16.109,4.787 24.487,23.735 24,39 4.868-1.061 4.68.225 8-1 .403-11.242-1.409-22.962 10-25-5.46-7.75-7.4-27.74-18-29zm-32,21c13.626,2.041 16.026,15.307 26,21 .622,1.063 4.178,6.377 4,2-3.18-11.33-16.43-35.19-30-23zm19,18c-2.024-2.586-2.117-5.943-4-8-11.279-12.32-32.182-10.097-34,11 10.694-.891 25.23-3.422 34,4 3.022,4.645 5.227,10.106 13,10 6.29-7.03-4.41-11.13-9-17zm38-30c-.652-5.015-1.884-9.45-3-14h-5c-.08,7.41 5.57,9.1 8,14zm69,13c9.459,3.237 17.496,2.735 23,2 .793-5.231 2.645-12.382 1-17-4.753-.58-9.221-1.445-15-1-1.403-1.263-.057-5.276-4-4-4.17,3.91-6.71,13.39-5,20zm97-4c-.646-4.688-3.512-7.155-3-13-6.723.038-15.785-2.858-21-1 9.37,3.3 13.88,11.45 24,14zm-105-1c1.667-1.333 6.364.364 6-3-2.49.51-6.03-.03-6,3zm38,0c.39,4.39-1.195,6.805-4,8 4.791,2.543 10.167,4.5 14,8 1.638-3.292 8.474-8.332 2-11 .279,2.279-.241,3.759-2,4-5.06-1.27-2.42-10.24-10-9zm11,7c-.121-3.879 1.213-9.213-4-8-1.73,2.46.13,8.02 4,8zm-46-4c.015-1.651 2.774-.56 3-2-2.04-.86-5.51,1.58-3,2zm74,17c-.596,1.424.503,3.535 0,5-1.153,3.359-5.23,8.822 0,10-.164-16.497 9.557-23.11 17-32-6.05,1.82-14.04,9.92-17,17zm20,9c9.31-.384 15.047-3.073 22-2-.562-5.086-1.291-10.767-1-19-7.481-1.519-13.849-4.151-22-5 1.81,7.19.7,17.3 1,26zm-93-24c-4.745.588-10.418.249-13,3 3.245,1.755 4.999,5.001 7,8 3.466.534 9.485-1.485 10,2-4.746,25.687 28.416,26.279 44,29 .701-4.368-1.701-5.632-1-10-10.639.639-19.298-.702-24-6-.665-8.999.653-16.013 7-18 2.942-.209 6.625,3.952 9,1-8.3-7.69-31.47-.53-39-9zm58,7c.168-3.502-3.519-3.148-5-5 .41,2.93 3.42,3.25 5,5zm-76,3c10.07,6.812 16.883,21.488 27,25-7.227-12.106-14.89-23.777-26-32-.01,2.66.38,5.71-1,7zm109-7c-9.821,4.007-17.17,15.277-14,29 5.078-1.255 3.277-9.389 8-11-1.481,4.941-7.719,12.07-3,17 5.559.201 5.104-10.863 9-9-1.639,3.363-5.979,8.226-3,13 11.72-5.01.63-28.5 3-39zm4,30c3.562-2.118 16.477-3.513 20-9-7.822-.155-14.207,1.126-21,2-.58,3.25.68,4.65 1,7zm-154-27c1.343,8.691-6.729,13.251-4,20 8.046-3.954 12.538-11.462 14-22-4.66-.66-6.42,1.58-10,2zm109,1c1.72.054 2.563-.77 3-2-1.57.1-3.47-.13-3,2zm17,15c6.296-7.031-3.962-12.838-8-16 2.19,5.59 9.58,9.82 8,16zm-16-8c2.341,2.128 7.95,3.003 10,0 .05-5.83-11.26-9.34-10,0zm-121-2c2.964,3.036-.964,12.964 2,16 3.639-4.694 4.566-12.1 7-18-2.58-2.08-8.26-.85-9,2zm98,6c-1.496.17-3.69-.357-4,1 1.182.485 2.267,1.066 3,2-1.464.87-3.169,1.497-3,4 8.96,5.009 10.957,5.007 22,4 .433-4.766-.155-8.511-3-10 4.076-1.696 10.899,1.491 11,7 2.2.605 7.453,2.513 8-1-8.664-9.507-16.458-14.453-34-14 .33,6.06-4.82,3.18 0,7zm-99-4c-1.427-.239-1.687-1.646-3-2-.658,1.342-2.138,1.862-4,2-2.128,3.4-.317,8.031 0,13 .469,7.343-1.4,18.657 6,19 2.41-13.12-.67-19.79 1-32zm47,6c.261-2.928-2.261-3.072-2-6-2.052-1.146-4.767,1.57-2,2 2.03-3.23 1.37,4.53 4,4zm-33,13c-2.826.826-2.591-1.409-5-1-1.115,6.218-6.5,8.167-8,14 8.95,6.25 10.76-6.5 13-13zm-3,12c4.179-1.169 9.297-10.025 18-10v-19c-11.511-.844-12.946,8.387-20,12-.092,3.759 5.01,2.323 6,5-.82,4.52-2.89,7.78-4,12zm178-20c-3.228,6.106-12.093,6.574-17,11 9.042.018 18.748-3.229 20,3-1.798-1.585-8.44-3.493-11-1 6.932,1.068 11.961,4.04 16,8 2.614-11.877-.813-25.661-9-30-.31,3.64.16,6.51 1,9zm-257-1c-1.726,3.397-.696,7.329 0,11 11.587-1.413 13.936-12.064 26-13-8.17-3.35-19.549-1.89-26,2zm200,23v-16c-7.208.542-8.482-4.852-13-7 1.24,10.76.58,23.42 13,23zm-173-10c-5.905-1.208-8.46,6.166-11,5 2.34-3.327 4.908-6.425 10-7 6.471,2.529 10.071,7.929 13,14 2.423-1.082 6.097-.75 9,0 1.149-15.149-13.805-14.195-18-24-16.075-2.742-17.55,9.117-28,12 .022,2.356-1.723,2.944-1,6 4.481,1.561 3.169,5.685 4,9 3.044.044 3.889-2.111 6-3 1.236-3.236-3.236-.764-2-4 7.75-1.33 12.58-2.79 18-8zm-20,19c2.398,4.269 3.582,9.751 11,9 1.996-2.004-.106-8.106 3-9h5c1.933-2.067 2.438-5.562 4-8 2.711,1.157 2.489.483 6,0-5.24-16.79-25.1-.51-29,8zm103-24c1.376-.043 2.196.471 3,1 .839-1.161 1.319-2.681 1-5h-3c.22,1.89-1.13,2.21-1,4zm-39,6c3.388-.743 5.163-6.859 4-9-6.35-.31-4.54,4.32-4,9zm44-4c3.19-.593 3.093,1.877 5,0 .805-4.139-1.535-5.132-5-5v5zm8-1v3c2.143.782 5.587,2.428 7,1v-4c-2.28-.48-5.11-1.98-7,0zm81,15c2.342,2.325 5.955,3.379 9,5 3.05,4.95 1.441,14.559 6,18 .936-3.397 1.337-7.329 2-11 1.496-2.171 5.736-1.597 6-5-1.192-12.808-13.251-14.749-20-22-1.84,4.16-3.66,8.34-3,15zm-105-10c3.039,2.824 4.928,2.922 10,2 .64-4.33-8.78-5.74-10-2zm-10,3c2.724,3.713 7.143.724 12,1-.07-6.43-9.85-3.75-12-1zm29-5c-4.38.219-8.611-3.964-11,0 3.34,1.57 9.15,2.63 11,0zm13,1h3v-3h-3v3zm4,3c2.319-.319 3.839.161 5,1-.725-3.059 1.725-2.941 1-6-3.056.723-3.644-1.022-6-1v6zm11,3c-.725-3.059 1.726-2.941 1-6-1.161-.839-2.681-1.319-5-1-.45,4.64-1.59,6.91 4,7zm-44,28c2.928-.261 3.072,2.261 6,2 2.699-1.634 4.758-3.909 6-7-5.44-3.35-10.83.87-12,5zm6-9c2.79-1.389 14.24.641 22,1 18.441.854 36.661-.117 48,8-16.929-4.957-30.986-6.78-53-6-3.325,1.675-3.889,6.111-7,8-.17,2.837 3.382,1.952 2,6-4.026,1.641-9.635,1.698-12,5 34.83-1.696 46.576,4.415 78,0 1.084-2.561-3.038-4.767 0-6 2.586,3.081 1.004,10.329 6,11 3.535-4.967 5.92-12.383 4-20 7.628.404 14.712,1.284 15-5 .165-3.605-2.523-2.637-3-7-7.064,3.547-11.736,3.474-23,3 .921,5.152.462,9.049-5,10 1.036-2.631 1.197-6.137 1-10 3.084-2.583 10.455-.879 12-5h-10c-6.235-7.433-16.722-4.443-26-6-7.8-1.309-15.997-7.426-24-9-4.686-.922-9.285.157-13-3-.64,3.36-4.795,3.205-9,3-5.313,3.687-13.443,4.557-20,7-3.948,8.385-7.692,16.975-18,19-.267-3.601 1.847-4.819 2-8-3.087-.246-5.653-1.014-8-2-.769,16.769 1.305,30.695 1,47 9.768-1.232 12.543-9.457 17-16 13.671,1.377 20.927-4.417 32-10-11.691.891-36.93,8.547-37-4-.026-4.72 3.896-7.023 8-7 5.024.028 5.197,6.242 10,6 4.39-.91 5.56-7.79 10-10zm46-15c7.507-.045 5.968-2.045 12,0v-7c-4.795-1.795-3.223,2.777-5,4v-5h-5c-.53,2.8-1.47,5.2-2,8zm1-9c-2.348-.319-3.753-1.58-7-1 .58,3.247-.681,4.652-1,7 2.753,1.199 4.177,2.172 7,1 .01-2.65-.38-5.71 1-7zm87,1c5.478-1.036-3.934-1.197-6-1-.111,1.889-3.306.694-3,3 4.39-1.29 5.36-1.45 9-2zm21,35c12.623-19.298-17.773-39.49-32-23-.801,6.468 4.079,7.254 8,9 2.555-.779 1.695-4.971 5-5-.132,2.465-.151,4.818 1,6 7.263,1.596 8.88-2.453 13-4-1.827,2.539-3.76,5.569-2,9 3.738.933 5.727-4.238 7,0-3.232.767-5.232,2.767-6,6 1.165.168 1.086,1.581 1,3 2.41.41 2.17-1.82 5-1zm0-24c.022-2.356-1.723-2.944-1-6-2.921,2.427-3.814-2.236-6-3-8.318-2.907-23.828.044-25,6 11.79-7.81 20.91-3.25 32,3zm-96-2c4.776.776 5.911-2.089 6-6-1.182-1.151-3.535-1.132-6-1v7zm-106,5c1.525-6.525-5.822-4.178-4-11h-4c-1.96,5.19 3.6,9.1 8,11zm24-10c-.526,4.586 3.37,4.035 6,3 .24-3.36-3.71-5.17-6-3zm102,2c-3.999-3.916-10.638,2.148-7,6 3.58-.75 6.35-2.31 7-6zm-5,8c6.421,1.189 9.073.154 11-5-4.96-5.51-7.14,3.39-11,5zm-2-10c-2.356.022-2.944-1.723-6-1 .723,3.056-1.022,3.644-1,6 3.14,1.131 2.642-.288 5,1 .33-2.34 1.2-4.13 2-6zm-102,7c2.745.851 7.255,3.244 10,1 0-6.03-8.13-3.92-10-1zm-11,5c3.156-.489 3.531,1.802 7,1 1.754-4.989-.84-8.319-7-8v7zm125-2c2.111,2.204 2.956-1.283 6-1-.52-4.75-5.61-2.27-6,1zm-158,16c.332-6.234.332-6.766 0-13 6.03,4.728 11.936,2.145 24,3-5.303-12.908-13.044-7.15-26-9-.154,2.488 1.571,3.096 2,5-1.768-.878-2.919-3.169-5-1 2.09,4.58 2.18,11.16 5,15zm-13-11c.405,4.595 2.381,7.619 3,12 3.027-1.376 3.573.476 8,0-.681-3.986-2.179-7.154-2-12h-9zm1,6c-1.765-2.067-7.077,14.021-2,15 .21-4.78 5.16-11.3 2-15zm-2,18c3.999-.332 5.551,1.783 10,1 1.521-2.812.952-7.715 2-11-3.769.769-4.78-1.22-8-1-2.15,2.85-2.14,7.86-4,11zm176-27c2.901-1.099 4.805-3.195 7-5-3.92-.81-8.37,7.01-7,5zm-121,8c4.2-1.467 8.879-2.454 9-8-.779-.221-1.163-.837-1-2-2.356.022-2.944-1.723-6-1 .03,4.37-.87,7.8-2,11zm125-8c-1.72-.054-2.563.77-3,2 1.72.05 2.56-.77 3-2zm0,4c1.458-2.209 5.354-1.979 6-5-2.45.61-8.78,2.48-6,5zm-164,7c5.719,1.44 14.629.85 24,1v-6h-24v5zm200,8c6.807.651 14.389.969 20,2-.619-4.381-2.595-7.405-3-12-7.436.751-14.676-3.968-21-1 2.15,2.85 3.03,6.97 4,11zm-3,13c.764-10.489 1.896-19.339-2-25-.125-2.208-4.242-.425-6-1 1.341,10.008-4.838,12.495-4,22 8.233,6.937-1.616,21.459 7,27 5.93-2.65 4.36-14.2 5-23zm-122-11c6.571-1.096 7.221-8.113 11-12-2.072.595-6.569-1.236-7,1 4.81,2.91-4.12,6.43-4,11zm-80,32c9.645,1.056 10.853-.011 22,1 2.474-2.525 4.635-5.365 5-10h-23c-1.19,3.15-3.38,5.29-4,9zm4-26c-.769,3.769 1.22,4.78 1,8 8.881.438 15.811,1.283 24,0v-21c-12.106.604-18.02-1.514-25,0-.638,3.695 1.295,9.961-1,12-.547-1.453 1.168-5.168-1-5-1.026,2.974-.006,7.994-3,9-3.708.708-4.292-1.708-8-1 .195,11.099-.111,19.017-1,27 15.23.89 11.47-17.2 14-29zm57-11c-.239-1.543-3.718-4.792-5-2 2.4-.53 7.05,4.39 5,2zm-9,2c-.956-1.862 2.995-3.342 0-4-.29.62-2.49,3.85 0,4zm-49,1c.161-.697-.349-5.82-1-3-.88,3.81.54,5.01 1,3zm23,35h7c.391-13.391-.319-25.681-1-38-.221-.779-.837-1.163-2-1 .03,14.37 1.17,29.84-4,39zm148-36c.054,7.118-.709,11.18-1,18-.444,10.395 1.129,16.77-3,20 .535-14.23 3.748-30.365 0-38-2.585,7.415.271,20.271-8,22 2.123,10.543 3.757,21.577 13,25 3.756-14.244 2.108-33.892 5-49-1.278-.055-1.385-1.282-3-1-.56,1.44-1.56,2.44-3,3zm7,11c2.826-.826 2.591,1.409 5,1 1.754-4.486-.121-11.127-4-13-.96,2.07-1.06,6.49-1,12zm-118-6c5.558-.109 10.616-.717 14-3-2.97-2.58-14.23-3.41-14,3zm-8,0c1.571-.095 3.467.134 3-2h-2c0,1.01-.81,1.19-1,2zm149-1v3c5.668.688 15.222,2.895 22,1-2.47-5.68-16.34-4.79-22-4zm-1,25c11.556-.194 10.812.948 21,1 .571-5.832 1.327-10.336 1-19-6.495-.838-14.087-.58-20-2-1.55,5.79-2.19,12.48-2,20zm-128-15c-7.547.885-18.094,4.012-21,8 3.736-1.563 12.798.484 17,4 26.955-4.291 60.471,1.376 89,0 .81-5.477-3.34-5.993-3-11-24.36,1.25-58.3-3.78-82-1zm124,32c9.338,2.023 10.395,1.366 20,2 2.022-2.978 4.146-5.854 4-11-7.523.19-12.917-1.75-21-1 1.02,5.35-3.69,4.98-3,10zm2,6c-.691-3.642-4.056-4.611-4-9 1.464-.87 3.17-1.497 3-4-1.223-3.028-3.816.707-5,1-2.852-7.798-4.954-13.349-3-24-2.09-.893-5.669-1.051-11-1-1.916,8.963 1.103,19.428-1,29-.551,2.509-2.827,4.208-3,7-.549,8.879 4.742,17.348 6,27 1.218,9.342-2.053,18.974 4,26 4.428.476 4.973-1.376 8,0 2.52-18.17 3.86-35.69 6-52zm-147-33c.272-2.062 4.428-.238 4-3-2.81-1.03-6.95,1.56-4,3zm-49,5c6.594.165 11.025-.027 15,0 2.608.018 8.284,2.88 9-3-5.945-2.587-13.805-1.799-24-2v5zm46-1c-4.261,7.591-21.534,9.929-15,22 7.578-3.088 13.807-7.527 18-14 3.777-1.89 10.472-.862 11-6-3.12-2.21-10.75.08-14-2zm22,7c12.057,3.947 25.577,11.752 29,21-8.997-10.88-32.912-29.683-47-14 1.233,9.058-8.936,11.515-4,21 15.551-7.971 39.272-8.936 55-2-19.1-2.883-38.787-4.579-54,3-2.785,3.447-7.088,9.928-6,14 9.244-1.64 23.298-10.546 37-9 4.148.468 8.748,2.457 12,5-12.197-4.896-31.622-3.423-40,4 18.491-5.654 41.76,1.384 55,10 .334-3.999-1.285-9.952 3-10-.065,4.732-.51,9.843 3,11 1.888-6.778 2.306-15.027 4-22-.286,7.62 1.184,13.483 2,20 16.257-9.344 34.707-8.364 52-3-4.802-2.914-4.367-19.851-10-26 1.784-1.34 3.094-5.788 1-8-13.672,2.04-37.878,2.089-49,10 5.879-7.465 17.269-8.836 28-10 7.179-.778 15.79,1.71 19-5-4.743-.561-8.649-6.267-7-10-20.159-.192-32.412-.054-51-1-.568,3.593 7.973,6.675 8,13-7.34-14.62-28.64-15.97-40-12zm84,3c2.562,1.104 1.575,5.759 6,5-.962-2.705-1.617-5.716-3-8 .31,2.31-2.89,1.11-3,3zm48,1c6.885,1.517 17.965,1.258 19-1-8.047-1.89-12.005-1.866-22-2-.57,2.59 1.34,2.64 3,3zm-166,22c1.204,10.871-5.319,14.014-4,25 12.687-.313 8.162-17.838 14-25-2.236-.431-.405-4.928-1-7 1.406-3.952 7.711-8.255 5-13-5.26,6.08-7.88,14.78-14,20zm-48-15c-2.746,15.729-2.604,36.422-1,54 10.053,2.194 13.545.915 21,2 1.054-2.672 1.226-10.253 3-15 6.534-.799 17.573,2.906 17-5-4.819-.393-13.808-1.005-22-2-3.341-.406-9.413,2.163-10-3-1.229-6.153 4.102-3.457 7-4 6.332-1.188 13.842-1.381 26-1 4.076-9.53 2.049-16.977-1-25-9.95-1.44-25.89-.93-40-1zm175,13c8.152,8.729 2.892,21.817 14,28 1.17-6.061-3.639-9.969-5-15-2.405-8.893-.487-18.375-9-24 1.69,4.52 2.14,6.81 0,11zm-128-4c3.455-.545 6.55-1.45 6-6-3.23.77-5.23,2.77-6,6zm-35,22c-1.556-.261-.693-2.193 0-3-4.12-1.7-1.42,7.39 0,3zm2,0c7.015.191 14.446,3.526 19,2-3.51-.789-1.155-3.498 0-5-10.33,1.03-14.23-1.73-19,3zm22,3c4.167.5 4.8-2.534 5-6-1.758.575-5.875-1.208-6,1 3.6-.96 1.77,4.32 1,5zm50-1c-15.648-1.605-35.341,3.808-39,13 12.897-1.521 24.535-12.491 41-10 12.16,1.84 19.378,13.4 30,13-2.44-9.07-22.44-15.02-32-16zm40,10c1.891.224 2.206-1.127 4-1-.924-1.743.034-5.367-3-5 .72,3.06-1.02,3.65-1,6zm38-6c-16.245-1.017-37.494,3.476-38,18 4.588,1.551 7.037-3.926 10-6 2.397-1.678 6.026-3.938 9-5 14.062-5.019 31.328-1.877 43,4-1.84-7.93-14.22-10.39-24-11zm-65,11c-2.101-1.232-3.899-2.768-6-4-.637-2.182 2.834-3.182-1-3-14.98-3.937-34.766,1.831-43,11 .749,18.04 8.789,42.38 6,64 4.257,4.765 1.637,11.46 3,17 .724,2.941 3.31,4.176 4,7 1.555,6.364-1.849,17.002 1,25 9.808,11.903 5.964,40.363 7,58 9.4,8.461 26.704,12.873 32-2-.627-2.039-5.053-.28-4-4 7.375-11.095 6.156-30.873 3-43-8.42-2.177-15.718,4.318-20,0 3.083-12.569 12.764-6.612 22-9 .396-5.94-5.389.517-6-4 2.952-6.271 7.25-15.355 3-23 3.89-1.6 5.999-7.499 4-12-5.44-1.402-10.376,2.906-14,0 1.691-6.19 9.248-.395 10-7-7.962-1.085-14.596,2.644-21,0 3.004-9.748 20.337-5.568 25-11-5.276-8.135-22.505.907-28-1 2.306-10.361 20.801-4.532 26-12-2.673-1.994-8.817-.517-12-2 1.961-5.066-1.406-2.745-2-7 6.565-6.271 22.455-1.654 21-14-.571-4.846-8.373-8.236-14-9-12.542-1.703-25.965,5.576-33,6 8.738-10.16 25.468-10.96 38-15-3.3-.58-1.43-3.77-1-6zm4,7c-8.773,4.894-24.354,2.979-31,10 13.591-5.926 36.226-5.592 40,9-2.309,8.69-13.009,8.99-20,13 7.428,1.254 10.167.125 13,4-.183-.25-3.019,1.623-3,2 .047.974 6.828,1.771 3,3-1.705,6.296-13.353,2.647-17,7 9.723.178 15.687-3.367 19,6-3.811,7.189-21.317.683-24,9 8.521.552 13.383-3.817 20,1 .473,3.14-2.691,2.642-3,5 3.558-.225 5.992.675 7,3 .307,5.641-.199,10.467-5,11 5.177,7.596-2.799,17.321-2,23 1.667-1.804 4.812-2.477 6,0 1.305,12.638-21.175,1.491-22,12 5.591.062 11.634-2.562 19-1 3.827,12.152 3.233,32.834-3,45 5.757.786 3.128,6.157 2,10 6.313-1.782 6.597-9.455 7-14 .897-10.125-2.172-24.105 0-36 .652-3.571 4.11-6.242 5-10 2.122-8.964-1.654-16.006-2-23-.089-1.808 1.92-3.711 2-6 .335-9.59-.742-17.32-2-23 7.004-19.85-2.24-39.402 4-61-6.704-2.639-13.785-10.202-20-10 4.74,1.26 4.44,7.56 7,11zm-72,9c2.232-2.526-2.183-4.467-2-8 4.923-2.636 5.639-11.753 11-11-2.989-2.011-9.435-.565-14-1-3.46,6.13-5.36,20.07 5,20zm152,10c.102-6.201-9.28-3.902-4-10-3.698.698-4.418-1.582-4-5 1.203-5.131 11.275-1.391 12-7-16.542-12.182-47.225-9.055-57,8 4.281,19.62 4.447,36.912 3,57-1.135,15.761-7.375,33.226-6,47 .272,2.726 2.611,7.864 3,12 1.49,15.855-1.348,38.061 9,46 5.507,4.226 15.337,4.566 23,5 4.36-4.426 1.227-8.503 2-14 .294-2.087 2.006-2.937 2-5-.028-9.685-6.037-19.553-3-27-2.68-1.177-9.756-1.514-6-6-3.822.155-7.282-.052-9-2 3.432-4.721 7.221-2.877 13-5 4.593-8.188 8.481-14.014 6-23 2.337-.329 4.131-1.202 6-2-.014-5.624-.815-10.066-1-13-3.163-.071-11.247,2.087-12-3 4.39-3.943 14.621-2.045 13-12-2.829-.171-6.86.86-7-2 2.664-6.336 13.308-4.692 17-10 .479-3.146-1.424-3.909-2-6-3.367-.633-9.289,1.288-11-1 .153-3.514 6.118-1.216 6-5-3.329.524-13.825,4.811-10-2 .82,2.773 5.969,2.486 7,0-2.062-.605-6.947,1.613-6-2 5.063-.89 7.448.328 14,0-.688-4.469-3.19-5.496 0-9-1.613-2.387-8.811.811-9-3 .097-1.38 3.903-3.902 4-2-2.88,1.68 5.11.8 7,1zm-146-25c-1.448,2.885-2.732,5.934-5,8 .533,3.8 3.123,5.544 3,10-3.156-.489-3.531,1.802-7,1-3.594-2.073-4.66-6.673-7-10-8.722.055-15.621-1.712-25-1 .46,4.874-1.047,11.713 1,15 18.241-.178 33.001,3.929 46-6 3.059-.725 2.941,1.725 6,1-1.94-8.55-.44-21.88-12-18zm81,18c2.714-.619 7.936,1.27 9-1-2.284-5.049-1.899-12.768-7-15-1.15,6.73-1.72,10.08-2,16zm59-5c.447,1.204 4.303-.254 5,3-.239,1.427-1.647,1.687-2,3 2.576,1.09 4.806,2.527 6,5-5.679,3.229-.138,5.955-5,10 2.689-.688 1.933,2.067 3,3-1.584,2.415-5.351,2.649-8,4 4.47-.169 2.581,3.519 1,5 5.526-.193 7.404,3.263 9,7-2.801,6.865-12.354,6.979-18,11h7c-.043,1.377.471,2.196 1,3-.735,7.932-7.788,9.546-14,12 6.329,1.5 9.587-1.399 12,2-.634,4.186.871,7.347 0,15-1.722,1.611-4.698,1.969-6,4 2.27,11.854-4.697,22.453-16,24 3.023.311 7.777-1.11 8,2-.239,1.427-1.647,1.687-2,3 4.894-.227 6.975,2.358 9,5-1.267,1.733-3.38,2.62-3,6 3.316,13.089 5.125,26.797 0,37 17.478-7.459 3.646-25.75 5-40 .777-8.181 7.657-17.279 9-28 .751-5.996.146-11.255 1-17 1.273-8.572 7.671-15.989 9-25 .653-4.431-.431-9.398 0-14 .179-1.908 1.761-4.001 2-6 .818-6.846-1.705-13.732-1-20 .851-7.568 6.902-16.834-1-21-1.23,4.77-12.55-.55-11,7zm15,18c9.05.164 11.29,1.68 20,0-2.488-4.512-4.555-9.445-7-14-10.66-4.25-13.98,3.7-13,14zm-156-7c.145-1.509 7.898,4.354 4,7h7c-1.388-5.388 3.809-4.191 3-9-1.73-6.57-13.86.59-14,2zm85-1c-.239,1.427-1.646,1.687-2,3 2.283,25.023-2.07,41.311-1,59 .138,2.272.906,4.704 1,7 .166,4.059-3.032,9.641 2,13 2.857-1.479 3.413-6.063 4-9 5.076-25.369 5.413-53.395 2-72-2.36.02-2.94-1.72-6-1zm-125,7c9.667-.609 15.211,1.379 22,1 4.191-.234 10.319,2.003 11-4-11.092-1.989-19.061-2.055-33-2v5zm31,30c-.159-6.383.271-9.557 1-13-6.644-1.369-19.76-1.557-25-1 5.51,6.85 11.08,23.83 24,14zm-25-17c5.219.557 19.787,2.901 26-1v-9c-11.597.597-20.251-1.748-32-1-2.518,11.1 5.82,22.657 14,29-1.13-7.02-8.32-12.81-8-18zm192-6c-3.331-.314 3.011-4.74-2-4-.57,2.05.3,7.5 2,4zm1,1c7.225-1.668 16.876,5.951 18-4-5.691.333-15.497-.471-18,0 2.49.15.29,3.39 0,4zm-3,4c.797.727 5.838-2.551 7,2 .792,3.458-1.112,4.222-2,6 6.25-1.238 6.616-.099 16,0v-9c-7.24,1.69-16.74-4.3-21,1zm1,4c2.465,3.208 6.177-2.331 2-3-.24,1.43-1.65,1.69-2,3zm-3,19c6.056-1.277 1.494-13.173 6-16-1.742.075-3.11-.224-4-1-.92,5.42-1.46,11.21-2,17zm4,0c10.539,4.707 13.273-6.604 17-12-5.066.066-8.281-1.719-14-1-1,4.33-2.72,7.95-3,13zm-112-9c1.273-1.393 4.898-.435 5-3-1.83.26-7.04,2.17-5,3zm36,63c3.808-1.096 6.242,2.646 7-1-1.753-.914-3.474-1.859-3-5h-3c.72,3.06-1.02,3.65-1,6zm56,25c7.75-1.263 12.114-2.836 18,1 .888-1.778 2.792-2.542 2-6-6.913-2.545-13.072-.071-20-3v8zm66,21c9.306-.903 13.487,6.138 14,11 6.757-.115 4.318-5.503 4-11 2.188-3.812 8.808-3.192 12-6-15.312-4.357-31.647-13.017-47-14 5.56,6.77 15.16,9.51 17,20zm-235-58c-23.733.574-50.125.23-74,7 9.64,1.359 7.771,13.366 16,14 4.759.366 5.645-5.02 11-7 11.899-4.4 13.686,6.03 25,4 1.918-11.41 17.82-8.84 22-18zm438,160c-12.573-7.427-19.529-20.471-33-27-.057,3.277-2.844,3.822-2,8 12.22,5.02 21.22,21.97 35,19z" fill="inherit"/></g><g id="change1_158"><path d="m178,31.072c-4.359.917-2.868,6.839-2,9-2.608,1.641-4.331.192-9,1 .177-6.823 3.382-10.618 6-15-5.836-.156-4.361,15.628-14,15 1.602-8.542 5.457-11.167 5-20 10.253-1.081 14.073-8.594 19-15 24.72-3.239 48.978,2.248 74,2 5.241,4.06 6.706,16.241 2,22-3.268-3.55 1.159-15.124-3-20-24.046.261-42.442-1.886-68-2-1.725,12.061-4.351,25.394-4,34-2.7-.517 1.44-10.561-6-11z" fill="#fff"/></g><g id="change1_159"><path d="m241,19.072c-15.689-7.356-39.902.68-50,11 1.866,7.2-3.352,7.315-4,12 .685-1.725-2.361-4.883-2-7 .862-5.054 18.583-19.226 31-21 9.68-1.383 18.93.321 25,5z" fill="#fff"/></g><g id="change1_160"><path d="m244,28.072c-.488-2.887 4.852,4.03 7,5-2.33,2.265-4.66-3.952-7-5z" fill="#fff"/></g><g id="change1_161"><path d="m98,43.072c3.023.311 7.777-1.11 8,2 2.762.428.938-3.728 3-4 2.88.119 6.546-.546 8,1 .639,4.496-2.73,8.54 0,12 6.489.156 3.745-8.922 6-13 6.321.346 4.656,8.677 5,15 2.169,1.498 5.629,1.705 9,2-1.301,7.136.997,18.335-1,25-5.9,3.456-18.182,1.381-24,3-3.375-5.965-3.161-12.655-6-19-3.51-7.835-13.291-14.611-8-24zm7,20c.873-6.54 2.562-18.945-5-16-3.091,6.116 1.8,12.845 5,16zm8,0c2.798-3.042 11.808.042 12-3-5.806-1.921-9.419.096-14,0-.01,2.656.378,5.711-1,7 6.768-.729 14.834.777 14-4-1.98,2.816-9.73,2.997-11,0zm15,3c3.733.399 5.868-.799 6-4-2.7-4.017-9.19-.67-6,4z" fill="#fff"/></g><g id="change2_13"><path d="m100,47.072c7.562-2.945 5.873,9.46 5,16-3.2-3.155-8.091-9.884-5-16zm4,12c.096-4.096-.138-7.862-4-8 .25,3.745 1.57,6.43 4,8z" fill="inherit"/></g><g id="change1_162"><path d="m183,44.072c6.144.202 21.683-.358 25,6-5.89-.587-17.26-3.968-25-6z" fill="#fff"/></g><g id="change1_163"><path d="m301,47.072c4.35-.017 8.997-.331 12,1 3.117,4.217 1.409,13.258 6,16 7.046-1.752-.805-16.139 6-16 3.948,2.999 1.691,9.085 2,14 .461,7.323 1.727,15.609 1,23-10.785-.496-20.523-1.346-29-2-.795-10.724 8.328-15.442 7-25-.7-5.049-5.02-4.471-5-11zm3,28c4.443.443 7.441-.559 7-5-3.89-2.833-8.06-1.801-7,5zm10,1h11c.876-3.541.124-2.459 1-6-2.698-1.968-8.738-.595-13-1 .01,2.656-.38,5.711 1,7z" fill="#fff"/></g><g id="change1_164"><path d="m258,58.072c2.234,15.239-7.118,27.545-18,33-1.135-.19-.555-1.003 0-1 9.68-6.99 16.03-17.306 18-32z" fill="#fff"/></g><g id="change2_14"><path d="m124,63.072c.834,4.777-7.232,3.271-14,4 1.378-1.289.99-4.344 1-7 4.581.096 8.194-1.921 14,0-.192,3.042-9.202-.042-12,3 1.27,2.997 9.02,2.816 11,0z" fill="inherit"/></g><g id="change1_165"><path d="m227,119.07c-.226,1.44-2.985.349-3,2-2.51-.42.96-2.86 3-2z" fill="#fff"/></g><g id="change1_166"><path d="m278 125.07c1.481 1.852 5.168 1.498 5 5-1.58-1.75-4.59-2.07-5-5z" fill="#fff"/></g><g id="change1_167"><path d="m284 129.07c4.038 3.162 14.296 8.969 8 16 1.58-6.18-5.81-10.41-8-16z" fill="#fff"/></g><g id="change2_15"><path d="m259,150.07c-2.507-.827-3.163-3.503-5-5 .66-3.007 3.843-3.49 3-8 8.71-2.58 10.15,11.28 2,13zm-2-6c-.582,3.582 2.959,3.041 6,3 1.36-4.49-4.03-4.85-6-3z" fill="inherit"/></g><g id="change1_168"><path d="m197,139.07c-2.767-.43-.052-3.146 2-2-.261,2.928 2.261,3.072 2,6-2.63.53-1.97-7.23-4-4z" fill="#fff"/></g><g id="change1_169"><path d="m95,168.07c-1.236,3.236 3.236.764 2,4-2.111.889-2.956,3.044-6,3-.831-3.315.481-7.439-4-9-.723-3.056 1.022-3.644 1-6 10.45-2.883 11.925-14.742 28-12 4.195,9.805 19.149,8.851 18,24-2.903-.75-6.577-1.082-9,0-2.929-6.071-6.529-11.471-13-14-5.092.575-7.66,3.673-10,7 2.54,1.166 5.095-6.208 11-5-5.42,5.21-10.25,6.67-18,8z" fill="#fff"/></g><g id="change1_170"><path d="m289 173.07c-2.195 1.805-4.099 3.901-7 5-1.37 2.01 3.08-5.81 7-5z" fill="#fff"/></g><g id="change1_171"><path d="m173,192.07c1.282-2.792 4.761.457 5,2 2.05,2.39-2.6-2.53-5-2z" fill="#fff"/></g><g id="change1_172"><path d="m274,211.07c-.34,5.007 3.81,5.523 3,11-28.529,1.376-62.045-4.291-89,0-4.202-3.516-13.264-5.563-17-4 2.906-3.988 13.453-7.115 21-8 23.7-2.78 57.64,2.25 82,1z" fill="#fff"/></g><g id="change1_173"><path d="m204,281.07c6.215-.202 13.296,7.361 20,10-6.24,21.598 3.004,41.15-4,61 1.258,5.68 2.335,13.41 2,23-.08,2.289-2.089,4.192-2,6 .346,6.994 4.122,14.036 2,23-.89,3.758-4.348,6.429-5,10-2.172,11.895.897,25.875 0,36-.403,4.545-.687,12.218-7,14 1.128-3.843 3.757-9.214-2-10 6.233-12.166 6.827-32.848 3-45-7.366-1.562-13.409,1.062-19,1 .825-10.509 23.305.638 22-12-1.188-2.477-4.333-1.804-6,0-.799-5.679 7.177-15.404 2-23 4.801-.533 5.307-5.359 5-11-1.008-2.325-3.442-3.225-7-3 .309-2.358 3.473-1.86 3-5-6.617-4.817-11.479-.448-20-1 2.683-8.317 20.189-1.811 24-9-3.313-9.367-9.277-5.822-19-6 3.647-4.353 15.295-.704 17-7 3.828-1.229-2.953-2.026-3-3-.019-.377 2.817-2.25 3-2-2.833-3.875-5.572-2.746-13-4 6.991-4.01 17.691-4.31 20-13-3.774-14.592-26.409-14.926-40-9 6.646-7.021 22.227-5.106 31-10-2.56-3.44-2.26-9.74-7-11z" fill="#fff"/></g><g id="change1_174"><path d="m284,310.07c-.097-1.902-3.903.62-4,2 .189,3.811 7.387.613 9,3-3.19,3.504-.688,4.531 0,9-6.552.328-8.937-.89-14,0-.947,3.613 3.938,1.395 6,2-1.031,2.486-6.18,2.773-7,0-3.825,6.811 6.671,2.524 10,2 .118,3.784-5.847,1.486-6,5 1.711,2.288 7.633.367 11,1 .576,2.091 2.479,2.854 2,6-3.692,5.308-14.336,3.664-17,10 .14,2.86 4.171,1.829 7,2 1.621,9.955-8.61,8.057-13,12 .753,5.087 8.837,2.929 12,3 .185,2.934.986,7.376 1,13-1.869.798-3.663,1.671-6,2 2.481,8.986-1.407,14.812-6,23-5.779,2.123-9.568.279-13,5 1.718,1.948 5.178,2.155 9,2-3.756,4.486 3.32,4.823 6,6-3.037,7.447 2.972,17.315 3,27 .006,2.063-1.706,2.913-2,5-.773,5.497 2.36,9.574-2,14-7.663-.434-17.493-.774-23-5-10.348-7.939-7.51-30.145-9-46-.389-4.136-2.728-9.274-3-12-1.375-13.774 4.865-31.239 6-47 1.447-20.088 1.281-37.38-3-57 9.775-17.055 40.458-20.182 57-8-.725,5.609-10.797,1.869-12,7-.418,3.418.302,5.698 4,5-5.28,6.098 4.102,3.799 4,10-1.89-.2-9.88.68-7-1z" fill="#fff"/></g><g id="change1_175"><path d="m303,320.07c2.503-.471 12.309.333 18,0-1.124,9.951-10.775,2.332-18,4 .29-.61 2.49-3.85 0-4zm13,3c1.485,1.574 4.468,1.114 4-2-2.28-.28-3.76.24-4,2z" fill="#fff"/></g><g id="change1_176"><path d="m195,339.07c-.102,2.565-3.727,1.607-5,3-2.04-.83 3.17-2.74 5-3z" fill="#fff"/></g><g id="change2_16"><path d="m28,434.07c1.137-4.17-.055-7.494-2-11-9.162-3.956-12.52,8.395-22,4-.138-4.529-2.827-6.506-4-10 2.928-.261 3.072,2.261 6,2-1.718,3.324-.306,6.106 3,7 6.172-3.493 16.175-7.965 22-1 .065,4.602 1.372,7.962 3,11 4.664-.664 6.424,1.575 10,2 3.947,4.258 8.142,15.848 4,8-1.083-2.053-1.972-2.588-3-6-6.137-1.53-11.935-3.4-17-6z" fill="inherit"/></g><g id="change2_17"><path d="m439,538.07c.559,11.441 12.616,11.384 15,21-2.799,2.867-3.808,7.526-9,8-.154,4.821 4.303,5.031 3,11-2.152,2.848-6.231,3.769-9,6 .463,3.203 3.808,3.526 4,7-2.246-2.087-4.502-4.165-5-8 5.996-3.574 8.609-9.055 4-16 2.882-.451 3.128-3.539 7-3 .876-3.541.124-2.459 1-6-1.016-3.559-7.606-4.599-10-9-2.551-4.69-4.112-12.805 1-17-2.842,12.609 14.599,11.123 19,13 3.432-.901 4.95-3.716 8-5 4.318-.651 5.605,1.728 8,3-2.19,2.81-6.351,3.649-7,8 .521,1.479 1.479,2.521 2,4 1.613-1.387 5.154-.846 6-3 8.944,6.48 22.101,2.641 33,3 22.25.734 34.166,15.374 52,28 14.875-.393 25.499,8.298 24,21-2.123,1.001-4.456,4.426-7,2-6.724,2.276-3.616,14.384-11,16 5.37-4.199 2.471-12.735 9-17 2.685-1.564 5.315.792 8-2-.03-13.304-8.806-17.861-22-18-14.791-9.808-28.78-25.734-49-28-9.614-1.077-16.669,3.216-28,2-3.554-.113-3.635-3.698-8-3-2.615-.282-4.302.365-4,3-3.946-.388-4.602-4.065-7-6 2.32-3.014 2.186-8.481 7-9-3.544-5.204-10.866.419-13,3-9.49-.84-17.58-3.08-22-9z" fill="inherit"/></g><g id="change2_18"><path d="m443,592.07c3.948,3.323 7.484,10.95 4,16 .38-4.51-.86-12.11-4-16z" fill="inherit"/></g><g id="change1_177"><path d="m107,79.072c4.396,2.27 2.631,10.702 3,17 2.474-.859-.294-6.96 2-8 7.096-1.673 17.918-1.154 24-1v10c-10.229-1.189-17.406,10.083-26,4-2.121,5.377 2.882,3.525 6,3-2.013,2.987-3.254,6.746-9,6-1.31-7.58.78-18.756 0-30.998z" fill="#fff"/></g></g></svg>